#N canvas 3 29 1677 991 10;
#X obj 127 291 r root;
#X obj 637 282 r root;
#X floatatom 404 96 5 0 0 0 - - -;
#X obj 405 160 s root;
#X obj 1230 669 r~ breatheOut;
#X obj 1376 607 vsl 15 128 0 1 0 0 empty empty empty 0 -9 0 10 -262144
-1 -1 2540 1;
#X floatatom 1376 740 5 0 0 0 - - -;
#X obj 210 579 *~;
#X obj 664 576 *~;
#X obj 773 556 r out;
#X obj 1108 280 hsl 128 15 0 1 0 0 empty empty empty -2 -8 0 10 -262144
-1 -1 5956 1;
#X obj 1108 304 - 1;
#X obj 1108 333 abs;
#X obj 1107 366 s in;
#X obj 292 556 r in;
#X obj 1163 304 s out;
#X obj 824 288 snapshot~;
#X floatatom 838 326 5 0 0 0 - - -;
#X obj 825 252 metro 50;
#X obj 209 616 s~ breatheIn;
#X obj 651 611 s~ breatheOut;
#X obj 1224 625 r~ breatheIn;
#X obj 802 224 tgl 15 0 empty empty empty 17 7 0 10 -262144 -1 -1 1
1;
#X floatatom 1017 30 5 0 0 0 - - -;
#X obj 982 110 phasor~;
#X obj 1052 70 * -1;
#X obj 1052 110 phasor~;
#X msg 1132 70 0;
#X obj 982 150 *~ 2;
#X obj 982 179 -~ 1;
#X obj 1052 150 *~ 2;
#X obj 1052 179 -~ 1;
#X obj 942 230 clip~ 0 1;
#X obj 1042 230 clip~ 0 1;
#X obj 992 270 +~;
#X obj 144 56 metro;
#X floatatom 169 28 5 0 0 0 - - -;
#X obj 136 9 tgl 15 0 empty empty empty 17 7 0 10 -262144 -1 -1 1 1
;
#X floatatom 228 129 5 0 0 0 - - -;
#X obj 313 111 +;
#X obj 208 57 random 1000;
#X obj 224 18 / 4;
#X obj 213 88 / 1500;
#X text 79 673 Interval Multipliers U 1 m2 1.0666 M2 1.125 m3 1.2 M3
1.25 P4 1.3333 TT 1.4062 P5 1.5 m6 1.6 M6 1.6666 m7 1.7777 M7 1.875
8 2;
#X obj 828 -106 loadbang;
#X msg 943 -3 0.07;
#X obj 1296 559 loadbang;
#X msg 1374 581 0.2;
#X obj 1415 352 loadbang;
#X msg 1414 381 \; pd dsp 1;
#X msg 1416 483 \; pd dsp 0;
#N canvas 110 27 1366 933 triangle 0;
#X floatatom 187 91 5 0 0 0 - - -;
#X obj 160 310 phasor~;
#X obj 230 270 * -1;
#X obj 230 310 phasor~;
#X msg 310 270 0;
#X obj 160 350 *~ 2;
#X obj 160 379 -~ 1;
#X obj 230 350 *~ 2;
#X obj 230 379 -~ 1;
#X obj 120 430 clip~ 0 1;
#X obj 220 430 clip~ 0 1;
#X obj 170 470 +~;
#X floatatom 409 91 5 0 0 0 - - -;
#X obj 400 310 phasor~;
#X obj 470 270 * -1;
#X obj 470 310 phasor~;
#X msg 550 270 0;
#X obj 400 350 *~ 2;
#X obj 400 379 -~ 1;
#X obj 470 350 *~ 2;
#X obj 470 379 -~ 1;
#X obj 360 430 clip~ 0 1;
#X obj 460 430 clip~ 0 1;
#X obj 410 470 +~;
#X obj 640 310 phasor~;
#X obj 710 270 * -1;
#X obj 710 310 phasor~;
#X msg 790 270 0;
#X obj 640 350 *~ 2;
#X obj 640 379 -~ 1;
#X obj 710 350 *~ 2;
#X obj 710 379 -~ 1;
#X obj 600 430 clip~ 0 1;
#X obj 700 430 clip~ 0 1;
#X obj 650 470 +~;
#X floatatom 667 88 5 0 0 0 - - -;
#X obj 640 310 phasor~;
#X obj 710 270 * -1;
#X obj 710 310 phasor~;
#X msg 790 270 0;
#X obj 640 350 *~ 2;
#X obj 640 379 -~ 1;
#X obj 710 350 *~ 2;
#X obj 710 379 -~ 1;
#X obj 600 430 clip~ 0 1;
#X obj 700 430 clip~ 0 1;
#X obj 650 470 +~;
#X floatatom 937 85 5 0 0 0 - - -;
#X obj 910 310 phasor~;
#X obj 980 270 * -1;
#X obj 980 310 phasor~;
#X msg 1060 270 0;
#X obj 910 350 *~ 2;
#X obj 910 379 -~ 1;
#X obj 980 350 *~ 2;
#X obj 980 379 -~ 1;
#X obj 870 430 clip~ 0 1;
#X obj 970 430 clip~ 0 1;
#X obj 920 470 +~;
#X obj 1270 283 s phaseSync;
#X obj 1060 230 r phaseSync;
#X obj 790 230 r phaseSync;
#X obj 520 240 r phaseSync;
#X obj 270 230 r phaseSync;
#X obj 1270 243 inlet bang;
#X obj 188 60 inlet tri1;
#X obj 409 59 inlet tri2;
#X obj 667 54 inlet tri3;
#X obj 937 56 inlet tri4;
#X obj 171 724 outlet~ tri1;
#X obj 389 733 outlet~ tri2;
#X obj 659 726 outlet~ tri3;
#X obj 932 726 outlet~ tri4;
#X obj 171 600 *~;
#X obj 401 603 *~;
#X obj 647 597 *~;
#X obj 918 595 *~;
#X obj 490 123 phasor~;
#X obj 490 150 expr~ $v1 > 0.5;
#X obj 738 117 phasor~;
#X obj 738 144 expr~ $v1 > 0.5;
#X obj 1005 113 phasor~;
#X obj 1005 140 expr~ $v1 > 0.5;
#X obj 484 604 *~;
#X obj 735 597 *~;
#X obj 1000 594 *~;
#X obj 490 174 *~ 0.25;
#X obj 738 168 *~ 0.25;
#X obj 1005 165 *~ 0.25;
#X connect 0 0 2 0;
#X connect 0 0 1 0;
#X connect 1 0 5 0;
#X connect 2 0 3 0;
#X connect 3 0 7 0;
#X connect 4 0 3 1;
#X connect 4 0 1 1;
#X connect 5 0 6 0;
#X connect 6 0 9 0;
#X connect 7 0 8 0;
#X connect 8 0 10 0;
#X connect 9 0 11 0;
#X connect 10 0 11 1;
#X connect 11 0 73 0;
#X connect 12 0 13 0;
#X connect 12 0 14 0;
#X connect 12 0 77 0;
#X connect 13 0 17 0;
#X connect 14 0 15 0;
#X connect 15 0 19 0;
#X connect 16 0 15 1;
#X connect 16 0 13 1;
#X connect 17 0 18 0;
#X connect 18 0 21 0;
#X connect 19 0 20 0;
#X connect 20 0 22 0;
#X connect 21 0 23 0;
#X connect 22 0 23 1;
#X connect 23 0 74 0;
#X connect 24 0 28 0;
#X connect 25 0 26 0;
#X connect 26 0 30 0;
#X connect 27 0 26 1;
#X connect 27 0 24 1;
#X connect 28 0 29 0;
#X connect 29 0 32 0;
#X connect 30 0 31 0;
#X connect 31 0 33 0;
#X connect 32 0 34 0;
#X connect 33 0 34 1;
#X connect 34 0 75 0;
#X connect 35 0 36 0;
#X connect 35 0 37 0;
#X connect 35 0 79 0;
#X connect 36 0 40 0;
#X connect 37 0 38 0;
#X connect 38 0 42 0;
#X connect 39 0 38 1;
#X connect 39 0 36 1;
#X connect 40 0 41 0;
#X connect 41 0 44 0;
#X connect 42 0 43 0;
#X connect 43 0 45 0;
#X connect 44 0 46 0;
#X connect 45 0 46 1;
#X connect 47 0 48 0;
#X connect 47 0 49 0;
#X connect 47 0 81 0;
#X connect 48 0 52 0;
#X connect 49 0 50 0;
#X connect 50 0 54 0;
#X connect 51 0 50 1;
#X connect 51 0 48 1;
#X connect 52 0 53 0;
#X connect 53 0 56 0;
#X connect 54 0 55 0;
#X connect 55 0 57 0;
#X connect 56 0 58 0;
#X connect 57 0 58 1;
#X connect 58 0 76 0;
#X connect 60 0 51 0;
#X connect 61 0 39 0;
#X connect 62 0 16 0;
#X connect 63 0 4 0;
#X connect 64 0 59 0;
#X connect 65 0 0 0;
#X connect 66 0 12 0;
#X connect 67 0 35 0;
#X connect 68 0 47 0;
#X connect 73 0 69 0;
#X connect 74 0 70 0;
#X connect 75 0 71 0;
#X connect 76 0 72 0;
#X connect 77 0 78 0;
#X connect 78 0 86 0;
#X connect 79 0 80 0;
#X connect 80 0 87 0;
#X connect 81 0 82 0;
#X connect 82 0 88 0;
#X connect 83 0 70 0;
#X connect 84 0 71 0;
#X connect 85 0 72 0;
#X connect 86 0 83 0;
#X connect 87 0 84 0;
#X connect 88 0 85 0;
#X coords 0 0 1 1 276 114 0;
#X restore 1415 544 pd triangle;
#X msg 416 19 100;
#N canvas 373 269 542 334 majorLow 0;
#X floatatom 86 132 5 0 0 0 - - -;
#X floatatom 156 133 5 0 0 0 - - -;
#X floatatom 220 132 5 0 0 0 - - -;
#X floatatom 286 132 5 0 0 0 - - -;
#X obj 85 72 * 1;
#X obj 88 177 osc~;
#X obj 152 181 osc~;
#X obj 220 176 osc~;
#X obj 284 179 osc~;
#X obj 155 72 * 1.5;
#X floatatom 343 132 5 0 0 0 - - -;
#X obj 341 179 osc~;
#X floatatom 396 131 5 0 0 0 - - -;
#X obj 394 178 osc~;
#X obj 219 72 * 2.25;
#X obj 295 72 * 3;
#X obj 352 72 * 3.75;
#X obj 405 71 * 5;
#X obj 394 211 *~ 0.5;
#X obj 59 225 outlet~;
#X obj 132 224 outlet~;
#X obj 201 224 outlet~;
#X obj 266 224 outlet~;
#X obj 325 249 outlet~;
#X obj 388 250 outlet~;
#X obj 205 12 inlet;
#X connect 0 0 5 0;
#X connect 1 0 6 0;
#X connect 2 0 7 0;
#X connect 3 0 8 0;
#X connect 4 0 0 0;
#X connect 5 0 19 0;
#X connect 6 0 20 0;
#X connect 7 0 21 0;
#X connect 8 0 22 0;
#X connect 9 0 1 0;
#X connect 10 0 11 0;
#X connect 11 0 23 0;
#X connect 12 0 13 0;
#X connect 13 0 18 0;
#X connect 14 0 2 0;
#X connect 15 0 3 0;
#X connect 16 0 10 0;
#X connect 17 0 12 0;
#X connect 18 0 24 0;
#X connect 25 0 4 0;
#X connect 25 0 9 0;
#X connect 25 0 14 0;
#X connect 25 0 15 0;
#X connect 25 0 16 0;
#X connect 25 0 17 0;
#X restore 99 433 pd majorLow;
#N canvas 566 350 607 357 majorHigh 0;
#X floatatom 98 142 5 0 0 0 - - -;
#X floatatom 166 142 5 0 0 0 - - -;
#X floatatom 238 142 5 0 0 0 - - -;
#X floatatom 298 142 5 0 0 0 - - -;
#X obj 91 188 osc~;
#X obj 155 192 osc~;
#X obj 229 187 osc~;
#X obj 296 186 osc~;
#X obj 298 113 * 3.75;
#X obj 266 220 *~ 0.5;
#X floatatom 368 145 5 0 0 0 - - -;
#X obj 366 189 osc~;
#X obj 368 116 * 4.5;
#X floatatom 436 148 5 0 0 0 - - -;
#X obj 434 192 osc~;
#X obj 436 119 * 5;
#X obj 404 226 *~ 0.3;
#X obj 336 223 *~ 0.4;
#X obj 279 18 inlet;
#X obj 53 221 outlet~;
#X obj 129 232 outlet~;
#X obj 196 229 outlet~;
#X obj 255 259 outlet~;
#X obj 327 261 outlet~;
#X obj 396 260 outlet~;
#X obj 95 78 * 2;
#X obj 163 78 * 2.5;
#X obj 237 106 * 3;
#X connect 0 0 4 0;
#X connect 1 0 5 0;
#X connect 2 0 6 0;
#X connect 3 0 7 0;
#X connect 4 0 19 0;
#X connect 5 0 20 0;
#X connect 6 0 21 0;
#X connect 7 0 9 0;
#X connect 8 0 3 0;
#X connect 9 0 22 0;
#X connect 10 0 11 0;
#X connect 11 0 17 0;
#X connect 12 0 10 0;
#X connect 13 0 14 0;
#X connect 14 0 16 0;
#X connect 15 0 13 0;
#X connect 16 0 24 0;
#X connect 17 0 23 0;
#X connect 18 0 8 0;
#X connect 18 0 12 0;
#X connect 18 0 15 0;
#X connect 18 0 25 0;
#X connect 18 0 26 0;
#X connect 18 0 27 0;
#X connect 25 0 0 0;
#X connect 26 0 1 0;
#X connect 27 0 2 0;
#X restore 620 426 pd majorHigh;
#N canvas 373 269 542 334 minorLow 0;
#X floatatom 86 132 5 0 0 0 - - -;
#X floatatom 156 133 5 0 0 0 - - -;
#X floatatom 220 132 5 0 0 0 - - -;
#X floatatom 286 132 5 0 0 0 - - -;
#X obj 85 72 * 1;
#X obj 88 177 osc~;
#X obj 152 181 osc~;
#X obj 220 176 osc~;
#X obj 284 179 osc~;
#X obj 155 72 * 1.5;
#X floatatom 343 132 5 0 0 0 - - -;
#X obj 341 179 osc~;
#X floatatom 396 131 5 0 0 0 - - -;
#X obj 394 178 osc~;
#X obj 219 72 * 2.25;
#X obj 295 72 * 3;
#X obj 394 211 *~ 0.5;
#X obj 59 225 outlet~;
#X obj 132 224 outlet~;
#X obj 201 224 outlet~;
#X obj 266 224 outlet~;
#X obj 325 249 outlet~;
#X obj 388 250 outlet~;
#X obj 205 12 inlet;
#X obj 342 74 * 3.54;
#X obj 405 71 * 4.8;
#X connect 0 0 5 0;
#X connect 1 0 6 0;
#X connect 2 0 7 0;
#X connect 3 0 8 0;
#X connect 4 0 0 0;
#X connect 5 0 17 0;
#X connect 6 0 18 0;
#X connect 7 0 19 0;
#X connect 8 0 20 0;
#X connect 9 0 1 0;
#X connect 10 0 11 0;
#X connect 11 0 21 0;
#X connect 12 0 13 0;
#X connect 13 0 16 0;
#X connect 14 0 2 0;
#X connect 15 0 3 0;
#X connect 16 0 22 0;
#X connect 23 0 4 0;
#X connect 23 0 9 0;
#X connect 23 0 14 0;
#X connect 23 0 15 0;
#X connect 23 0 24 0;
#X connect 23 0 25 0;
#X connect 24 0 10 0;
#X connect 25 0 12 0;
#X restore 239 431 pd minorLow;
#N canvas 566 350 607 357 minorHigh 0;
#X floatatom 98 142 5 0 0 0 - - -;
#X floatatom 166 142 5 0 0 0 - - -;
#X floatatom 238 142 5 0 0 0 - - -;
#X floatatom 298 142 5 0 0 0 - - -;
#X obj 94 78 * 1.5;
#X obj 91 188 osc~;
#X obj 155 192 osc~;
#X obj 229 187 osc~;
#X obj 296 186 osc~;
#X obj 163 78 * 2;
#X obj 266 220 *~ 0.5;
#X floatatom 368 145 5 0 0 0 - - -;
#X obj 366 189 osc~;
#X obj 368 116 * 4.5;
#X floatatom 436 148 5 0 0 0 - - -;
#X obj 434 192 osc~;
#X obj 404 226 *~ 0.3;
#X obj 336 223 *~ 0.4;
#X obj 279 18 inlet;
#X obj 53 221 outlet~;
#X obj 129 232 outlet~;
#X obj 196 229 outlet~;
#X obj 255 259 outlet~;
#X obj 327 261 outlet~;
#X obj 396 260 outlet~;
#X obj 237 106 * 2.4;
#X obj 298 113 * 3.54;
#X obj 436 119 * 4.8;
#X connect 0 0 5 0;
#X connect 1 0 6 0;
#X connect 2 0 7 0;
#X connect 3 0 8 0;
#X connect 4 0 0 0;
#X connect 5 0 19 0;
#X connect 6 0 20 0;
#X connect 7 0 21 0;
#X connect 8 0 10 0;
#X connect 9 0 1 0;
#X connect 10 0 22 0;
#X connect 11 0 12 0;
#X connect 12 0 17 0;
#X connect 13 0 11 0;
#X connect 14 0 15 0;
#X connect 15 0 16 0;
#X connect 16 0 24 0;
#X connect 17 0 23 0;
#X connect 18 0 4 0;
#X connect 18 0 9 0;
#X connect 18 0 13 0;
#X connect 18 0 25 0;
#X connect 18 0 26 0;
#X connect 18 0 27 0;
#X connect 25 0 2 0;
#X connect 26 0 3 0;
#X connect 27 0 14 0;
#X restore 747 425 pd minorHigh;
#X obj 128 531 *~;
#X obj 259 519 *~;
#X obj 640 530 *~;
#X obj 751 526 *~;
#X obj 394 306 hsl 128 15 0 1 0 0 empty empty empty -2 -8 0 10 -262144
-1 -1 0 1;
#X obj 394 330 - 1;
#X obj 394 359 abs;
#X floatatom 444 333 5 0 0 0 - - -;
#X floatatom 396 396 5 0 0 0 - - -;
#X obj 394 229 tgl 15 0 empty empty empty 17 7 0 10 -262144 -1 -1 0
1;
#X obj 392 279 line;
#X msg 394 254 \$1 1000;
#N canvas 15 25 1637 997 audioFile 0;
#X obj 535 125 openpanel;
#X obj 284 111 bng 15 250 50 0 empty empty empty 17 7 0 10 -262144
-1 -1;
#X msg 534 153 read -resize \$1 table-1;
#X obj 534 179 soundfiler;
#X msg 388 189 1;
#X obj 398 240 *~;
#X obj 531 243 expr 44100/$f1;
#N canvas 0 22 450 278 (subpatch) 0;
#X array table-1 1.43986e+07 float 0;
#X coords 0 1 1.43986e+07 -1 200 140 1;
#X restore 108 147 graph;
#X obj 398 273 phasor~;
#X obj 415 316 *~;
#X obj 414 364 tabread4~ table-1;
#X obj 414 405 *~ 0.5;
#X obj 322 113 vsl 15 128 0 2 0 0 empty empty empty 0 -9 0 10 -262144
-1 -1 635 1;
#X floatatom 312 253 5 0 0 0 - - -;
#X msg 436 190 0;
#X obj 413 440 outlet~;
#X obj 111 147 hsl 195 140 0 0 0 0 empty playhead empty -2 -8 0 10
-262144 -1 -1 -2.14748e+09 1;
#X floatatom 650 197 10 0 0 0 - - -;
#X obj 624 417 s playhead;
#X msg 329 37 range 0 \$1;
#X obj 585 351 snapshot~;
#X obj 607 317 metro 50;
#X obj 611 288 tgl 15 0 empty empty empty 17 7 0 10 -262144 -1 -1 1
1;
#X floatatom 614 384 10 0 0 0 - - -;
#X obj 846 30 inlet;
#X text 896 30 inlet for loadbang;
#X msg 370 74 0.1;
#X msg 808 170 read -resize rain-forest-loop.aif table-1;
#X connect 0 0 2 0;
#X connect 1 0 0 0;
#X connect 2 0 3 0;
#X connect 3 0 6 0;
#X connect 3 0 9 1;
#X connect 3 0 17 0;
#X connect 4 0 5 0;
#X connect 5 0 8 0;
#X connect 6 0 5 1;
#X connect 8 0 9 0;
#X connect 9 0 10 0;
#X connect 9 0 20 0;
#X connect 10 0 11 0;
#X connect 11 0 15 0;
#X connect 12 0 13 0;
#X connect 12 0 11 1;
#X connect 14 0 5 0;
#X connect 17 0 19 0;
#X connect 19 0 16 0;
#X connect 20 0 23 0;
#X connect 21 0 20 0;
#X connect 22 0 21 0;
#X connect 23 0 18 0;
#X connect 24 0 4 0;
#X connect 24 0 22 0;
#X connect 24 0 27 0;
#X connect 24 0 26 0;
#X connect 26 0 12 0;
#X connect 27 0 3 0;
#X coords 0 -1 1 1 250 200 1 100 100;
#X restore 514 651 pd audioFile;
#X obj 514 861 s~ samples;
#X obj 1480 701 r~ samples;
#X obj 514 612 loadbang;
#X obj 1425 875 dac~ 3 4;
#X obj 1234 880 dac~ 27 28 29 30;
#X obj 1148 775 +~ 1;
#X obj 1154 807 *~ 0.5;
#X obj 1478 732 +~ 1;
#X obj 1478 769 *~ 0.5;
#X obj 1150 750 *~ 0.5;
#X obj 126 491 *~ 0.5;
#X obj 263 481 *~ 0.5;
#X obj 641 496 *~ 0.5;
#X obj 757 494 *~ 0.5;
#X obj 1455 814 *~ 0.5;
#N canvas 60 25 1620 956 anemometer 0;
#X obj 523 298 loadbang;
#X msg 526 333 1;
#X obj 676 345 snapshot~;
#X obj 741 298 metro 50;
#X obj 743 271 tgl 15 0 empty empty empty 17 7 0 10 -262144 -1 -1 1
1;
#X floatatom 777 360 5 0 0 0 - - -;
#X obj 622 502 outlet;
#X obj 424 427 print WIND-RAW;
#X obj 1007 698 print WIND-CALIBRATED;
#X obj 676 368 * 100;
#X obj 672 179 inlet~;
#X obj 677 431 line~;
#X msg 677 403 \$1 500;
#X obj 885 638 snapshot~;
#X floatatom 986 653 5 0 0 0 - - -;
#X connect 0 0 1 0;
#X connect 0 0 4 0;
#X connect 2 0 5 0;
#X connect 2 0 9 0;
#X connect 3 0 2 0;
#X connect 3 0 13 0;
#X connect 4 0 3 0;
#X connect 9 0 12 0;
#X connect 10 0 2 0;
#X connect 12 0 11 0;
#X connect 13 0 14 0;
#X connect 13 0 8 0;
#X restore 1185 8 pd anemometer;
#N canvas 731 367 450 300 photo-transistor 0;
#X obj 137 62 inlet~;
#X obj 139 115 snapshot~;
#X obj 222 27 loadbang;
#X obj 221 55 tgl 15 0 empty empty empty 17 7 0 10 -262144 -1 -1 1
1;
#X obj 222 79 metro 50;
#X obj 23 170 print PHOTO-TRANSISTOR-RAW;
#X obj 242 204 outlet;
#X obj 284 181 print PHOTO-TRANSISTOR;
#X obj 232 149 * 100;
#X connect 0 0 1 0;
#X connect 1 0 8 0;
#X connect 2 0 3 0;
#X connect 3 0 4 0;
#X connect 4 0 1 0;
#X connect 8 0 6 0;
#X connect 8 0 7 0;
#X restore 1294 12 pd photo-transistor;
#X obj 1267 -64 adc~ 3 4 5 6 7 8 9 10 11 12;
#N canvas 731 367 450 300 thermistor 0;
#X obj 137 62 inlet~;
#X obj 139 115 snapshot~;
#X obj 222 27 loadbang;
#X obj 221 55 tgl 15 0 empty empty empty 17 7 0 10 -262144 -1 -1 1
1;
#X obj 222 79 metro 50;
#X obj 23 170 print PHOTO-TRANSISTOR-RAW;
#X obj 242 204 outlet;
#X obj 284 181 print THERMISTOR;
#X obj 232 149 * 100;
#X connect 0 0 1 0;
#X connect 1 0 8 0;
#X connect 2 0 3 0;
#X connect 3 0 4 0;
#X connect 4 0 1 0;
#X connect 8 0 6 0;
#X restore 1436 31 pd thermistor;
#N canvas 731 367 450 300 moisture 0;
#X obj 137 62 inlet~;
#X obj 139 115 snapshot~;
#X obj 222 27 loadbang;
#X obj 221 55 tgl 15 0 empty empty empty 17 7 0 10 -262144 -1 -1 1
1;
#X obj 222 79 metro 50;
#X obj 242 204 outlet;
#X obj 284 181 print MOISTURE;
#X connect 0 0 1 0;
#X connect 1 0 5 0;
#X connect 2 0 3 0;
#X connect 3 0 4 0;
#X connect 4 0 1 0;
#X restore 1387 63 pd moisture;
#N canvas 610 191 450 300 blockSize 0;
#X obj 173 136 block~ 64;
#X restore 1027 506 pd blockSize;
#X connect 0 0 53 0;
#X connect 0 0 55 0;
#X connect 1 0 54 0;
#X connect 1 0 56 0;
#X connect 2 0 39 1;
#X connect 4 0 79 0;
#X connect 5 0 6 0;
#X connect 7 0 19 0;
#X connect 8 0 20 0;
#X connect 9 0 8 1;
#X connect 10 0 11 0;
#X connect 10 0 15 0;
#X connect 11 0 12 0;
#X connect 12 0 13 0;
#X connect 14 0 7 1;
#X connect 16 0 17 0;
#X connect 17 0 10 0;
#X connect 18 0 16 0;
#X connect 21 0 79 0;
#X connect 22 0 18 0;
#X connect 23 0 24 0;
#X connect 23 0 25 0;
#X connect 24 0 28 0;
#X connect 25 0 26 0;
#X connect 26 0 30 0;
#X connect 27 0 26 1;
#X connect 27 0 24 1;
#X connect 28 0 29 0;
#X connect 29 0 32 0;
#X connect 30 0 31 0;
#X connect 31 0 33 0;
#X connect 32 0 34 0;
#X connect 33 0 34 1;
#X connect 34 0 16 0;
#X connect 35 0 40 0;
#X connect 36 0 35 1;
#X connect 37 0 35 0;
#X connect 38 0 39 0;
#X connect 39 0 3 0;
#X connect 40 0 41 0;
#X connect 40 0 42 0;
#X connect 41 0 36 0;
#X connect 42 0 38 0;
#X connect 44 0 37 0;
#X connect 44 0 22 0;
#X connect 44 0 52 0;
#X connect 44 0 45 0;
#X connect 44 0 27 0;
#X connect 45 0 23 0;
#X connect 46 0 47 0;
#X connect 47 0 5 0;
#X connect 48 0 49 0;
#X connect 52 0 2 0;
#X connect 53 0 80 0;
#X connect 53 1 80 0;
#X connect 53 2 80 0;
#X connect 53 3 80 0;
#X connect 53 4 80 0;
#X connect 53 5 80 0;
#X connect 54 0 82 0;
#X connect 54 1 82 0;
#X connect 54 2 82 0;
#X connect 54 3 82 0;
#X connect 54 4 82 0;
#X connect 54 5 82 0;
#X connect 55 0 81 0;
#X connect 55 1 81 0;
#X connect 55 2 81 0;
#X connect 55 3 81 0;
#X connect 55 4 81 0;
#X connect 55 5 81 0;
#X connect 56 0 83 0;
#X connect 56 1 83 0;
#X connect 56 2 83 0;
#X connect 56 3 83 0;
#X connect 56 4 83 0;
#X connect 56 5 83 0;
#X connect 57 0 7 0;
#X connect 58 0 7 0;
#X connect 59 0 8 0;
#X connect 60 0 8 0;
#X connect 61 0 62 0;
#X connect 61 0 64 0;
#X connect 62 0 63 0;
#X connect 63 0 65 0;
#X connect 64 0 58 1;
#X connect 64 0 60 1;
#X connect 65 0 57 1;
#X connect 65 0 59 1;
#X connect 66 0 68 0;
#X connect 67 0 61 0;
#X connect 68 0 67 0;
#X connect 69 0 70 0;
#X connect 71 0 77 0;
#X connect 72 0 69 0;
#X connect 75 0 76 0;
#X connect 76 0 84 0;
#X connect 77 0 78 0;
#X connect 78 0 84 0;
#X connect 79 0 75 0;
#X connect 80 0 57 0;
#X connect 81 0 58 0;
#X connect 82 0 59 0;
#X connect 83 0 60 0;
#X connect 84 0 73 0;
#X connect 84 0 73 1;
#X connect 84 0 74 0;
#X connect 87 0 85 0;
#X connect 87 1 86 0;
