#N canvas 1784 25 1764 1010 10;
#X obj 772 52 s in;
#X obj 906 45 s out;
#X text 68 811 Interval Multipliers U 1 m2 1.0666 M2 1.125 m3 1.2 M3
1.25 P4 1.3333 TT 1.4062 P5 1.5 m6 1.6 M6 1.6666 m7 1.7777 M7 1.875
8 2;
#X obj 828 -106 loadbang;
#X obj 1553 -45 loadbang;
#X msg 1552 -16 \; pd dsp 1;
#X msg 1551 28 \; pd dsp 0;
#N canvas 0 66 1620 956 anemometer 0;
#X obj 777 115 loadbang;
#X obj 675 253 snapshot~;
#X obj 740 206 metro 50;
#X obj 742 179 tgl 15 0 empty empty empty 17 7 0 10 -262144 -1 -1 1
1;
#X obj 746 578 outlet;
#X obj 674 161 inlet~;
#X obj 676 498 line~;
#X obj 746 540 snapshot~;
#X msg 676 476 \$1 1000;
#X text 798 222 Input Min;
#X text 903 222 Input Max;
#X floatatom 860 253 5 0 0 0 - - -;
#X floatatom 967 254 5 0 0 0 - - -;
#X msg 862 222 0.1;
#X msg 966 221 0.2;
#X obj 673 419 expr ($f1 -$f2)/($f3-$f2);
#X connect 0 0 3 0;
#X connect 0 0 13 0;
#X connect 0 0 14 0;
#X connect 1 0 15 0;
#X connect 2 0 1 0;
#X connect 2 0 7 0;
#X connect 3 0 2 0;
#X connect 5 0 1 0;
#X connect 6 0 7 0;
#X connect 7 0 4 0;
#X connect 8 0 6 0;
#X connect 11 0 15 1;
#X connect 12 0 15 2;
#X connect 13 0 11 0;
#X connect 14 0 12 0;
#X connect 15 0 8 0;
#X restore 970 -32 pd anemometer;
#N canvas -8 0 768 773 photo-transistor 0;
#X obj 164 21 loadbang;
#X obj 62 159 snapshot~;
#X obj 127 112 metro 50;
#X obj 129 85 tgl 15 0 empty empty empty 17 7 0 10 -262144 -1 -1 1
1;
#X obj 133 484 outlet;
#X obj 61 67 inlet~;
#X obj 63 404 line~;
#X obj 133 446 snapshot~;
#X text 185 128 Input Min;
#X text 290 128 Input Max;
#X floatatom 247 159 5 0 0 0 - - -;
#X floatatom 354 160 5 0 0 0 - - -;
#X obj 59 325 expr ($f1 -$f2)/($f3-$f2);
#X msg 353 127 0.8;
#X msg 249 128 0.1;
#X msg 63 382 \$1 10000;
#X connect 0 0 3 0;
#X connect 0 0 14 0;
#X connect 0 0 13 0;
#X connect 1 0 12 0;
#X connect 2 0 1 0;
#X connect 2 0 7 0;
#X connect 3 0 2 0;
#X connect 5 0 1 0;
#X connect 6 0 7 0;
#X connect 7 0 4 0;
#X connect 10 0 12 1;
#X connect 11 0 12 2;
#X connect 12 0 15 0;
#X connect 13 0 11 0;
#X connect 14 0 10 0;
#X connect 15 0 6 0;
#X restore 1374 -30 pd photo-transistor;
#N canvas 160 85 450 546 thermistor 0;
#X obj 164 21 loadbang;
#X obj 62 159 snapshot~;
#X obj 127 112 metro 50;
#X obj 129 85 tgl 15 0 empty empty empty 17 7 0 10 -262144 -1 -1 1
1;
#X obj 133 484 outlet;
#X obj 61 67 inlet~;
#X obj 63 404 line~;
#X obj 133 446 snapshot~;
#X msg 63 382 \$1 1000;
#X text 185 128 Input Min;
#X text 290 128 Input Max;
#X floatatom 247 159 5 0 0 0 - - -;
#X floatatom 354 160 5 0 0 0 - - -;
#X obj 59 325 expr ($f1 -$f2)/($f3-$f2);
#X msg 249 128 0.2;
#X msg 353 127 0.5;
#X connect 0 0 3 0;
#X connect 0 0 14 0;
#X connect 0 0 15 0;
#X connect 1 0 13 0;
#X connect 2 0 1 0;
#X connect 2 0 7 0;
#X connect 3 0 2 0;
#X connect 5 0 1 0;
#X connect 6 0 7 0;
#X connect 7 0 4 0;
#X connect 8 0 6 0;
#X connect 11 0 13 1;
#X connect 12 0 13 2;
#X connect 13 0 8 0;
#X connect 14 0 11 0;
#X connect 15 0 12 0;
#X restore 1282 -29 pd thermistor;
#N canvas 319 65 450 513 moisture 0;
#X obj 164 21 loadbang;
#X obj 62 159 snapshot~;
#X obj 127 112 metro 50;
#X obj 129 85 tgl 15 0 empty empty empty 17 7 0 10 -262144 -1 -1 1
1;
#X obj 133 484 outlet;
#X obj 61 67 inlet~;
#X obj 63 404 line~;
#X obj 133 446 snapshot~;
#X msg 63 382 \$1 1000;
#X text 185 128 Input Min;
#X text 290 128 Input Max;
#X floatatom 247 159 5 0 0 0 - - -;
#X floatatom 354 160 5 0 0 0 - - -;
#X msg 249 128 0;
#X msg 353 127 0.75;
#X obj 59 325 expr ($f1 -$f2)/($f3-$f2);
#X connect 0 0 3 0;
#X connect 0 0 13 0;
#X connect 0 0 14 0;
#X connect 1 0 15 0;
#X connect 2 0 1 0;
#X connect 2 0 7 0;
#X connect 3 0 2 0;
#X connect 5 0 1 0;
#X connect 6 0 7 0;
#X connect 7 0 4 0;
#X connect 8 0 6 0;
#X connect 11 0 15 1;
#X connect 12 0 15 2;
#X connect 13 0 11 0;
#X connect 14 0 12 0;
#X connect 15 0 8 0;
#X restore 1084 -31 pd moisture;
#X msg 769 -56 0.05;
#N canvas -153 35 1610 836 breath 0;
#X obj 510 138 hsl 128 15 0 1 0 0 empty empty empty -2 -8 0 10 -262144
-1 -1 9681 1;
#X obj 495 193 - 1;
#X obj 494 224 abs;
#X obj 832 423 snapshot~;
#X floatatom 846 461 5 0 0 0 - - -;
#X obj 833 387 metro 50;
#X obj 836 342 tgl 15 0 empty empty empty 17 7 0 10 -262144 -1 -1 1
1;
#X floatatom 509 118 5 0 0 0 - - -;
#X obj 921 245 phasor~;
#X obj 991 205 * -1;
#X obj 991 245 phasor~;
#X msg 1071 205 0;
#X obj 921 285 *~ 2;
#X obj 921 314 -~ 1;
#X obj 991 285 *~ 2;
#X obj 991 314 -~ 1;
#X obj 881 365 clip~ 0 1;
#X obj 981 365 clip~ 0 1;
#X obj 931 405 +~;
#X text 844 221 breath speed;
#X obj 1099 88 inlet;
#X obj 89 96 inlet;
#X obj 499 295 outlet;
#X obj 565 290 outlet;
#X connect 0 0 1 0;
#X connect 0 0 23 0;
#X connect 1 0 2 0;
#X connect 2 0 22 0;
#X connect 3 0 4 0;
#X connect 4 0 0 0;
#X connect 5 0 3 0;
#X connect 6 0 5 0;
#X connect 7 0 8 0;
#X connect 7 0 9 0;
#X connect 8 0 12 0;
#X connect 9 0 10 0;
#X connect 10 0 14 0;
#X connect 11 0 10 1;
#X connect 11 0 8 1;
#X connect 12 0 13 0;
#X connect 13 0 16 0;
#X connect 14 0 15 0;
#X connect 15 0 17 0;
#X connect 16 0 18 0;
#X connect 17 0 18 1;
#X connect 18 0 3 0;
#X connect 20 0 11 0;
#X connect 20 0 6 0;
#X connect 21 0 7 0;
#X coords 0 -1 1 1 150 60 1 500 100;
#X restore 769 -32 pd breath;
#X floatatom 219 519 10 0 0 0 - - -;
#X obj 159 510 tgl 15 0 empty empty empty 17 7 0 10 -262144 -1 -1 1
1;
#X obj 190 598 bng 15 250 50 0 empty empty empty 17 7 0 10 -262144
-1 -1;
#X obj 162 702 bng 15 250 50 0 empty empty empty 17 7 0 10 -262144
-1 -1;
#X obj 202 701 bng 15 250 50 0 empty empty empty 17 7 0 10 -262144
-1 -1;
#X obj 238 700 bng 15 250 50 0 empty empty empty 17 7 0 10 -262144
-1 -1;
#X obj 117 732 s triggerBirds;
#X obj 157 754 s triggerCrickets;
#X obj 211 733 s triggerLoon;
#X obj 1481 333 vsl 15 128 0 1 0 0 empty empty empty 0 -9 0 10 -262144
-1 -1 6350 1;
#X floatatom 1481 466 5 0 0 0 - - -;
#X obj 1511 238 loadbang;
#X obj 1368 532 hradio 15 1 0 6 empty empty empty 0 -8 0 10 -262144
-1 -1 0;
#X floatatom 1376 561 5 0 0 0 - - -;
#X obj 1367 505 random 6;
#X obj 1163 415 bng 15 250 50 0 empty empty empty 17 7 0 10 -262144
-1 -1;
#X obj 1164 392 r triggerBirds;
#N canvas 392 25 1088 830 switchboard 0;
#X obj 71 37 inlet~;
#X obj 793 38 inlet, f 6;
#X obj 141 476 *~;
#X obj 315 480 *~;
#X obj 458 473 *~;
#X obj 620 469 *~;
#X obj 729 467 *~;
#X obj 827 465 *~;
#X obj 147 617 outlet~;
#X obj 313 628 outlet~;
#X obj 447 629 outlet~;
#X obj 614 626 outlet~;
#X obj 844 630 outlet~;
#X obj 726 625 outlet~;
#X obj 597 89 == 0;
#X msg 591 110 \$1 20;
#X obj 592 128 line~;
#X msg 648 109 \$1 20;
#X obj 649 127 line~;
#X msg 703 105 \$1 20;
#X obj 704 123 line~;
#X msg 758 107 \$1 20;
#X obj 759 125 line~;
#X msg 813 107 \$1 20;
#X obj 816 126 line~;
#X msg 874 107 \$1 20;
#X obj 875 125 line~;
#X obj 654 88 == 1;
#X obj 709 84 == 2;
#X obj 764 86 == 3;
#X obj 819 86 == 4;
#X obj 880 86 == 5;
#X connect 0 0 2 0;
#X connect 0 0 3 0;
#X connect 0 0 4 0;
#X connect 0 0 5 0;
#X connect 0 0 6 0;
#X connect 0 0 7 0;
#X connect 1 0 14 0;
#X connect 1 0 27 0;
#X connect 1 0 28 0;
#X connect 1 0 29 0;
#X connect 1 0 30 0;
#X connect 1 0 31 0;
#X connect 2 0 8 0;
#X connect 3 0 9 0;
#X connect 4 0 10 0;
#X connect 5 0 11 0;
#X connect 6 0 13 0;
#X connect 7 0 12 0;
#X connect 14 0 15 0;
#X connect 15 0 16 0;
#X connect 16 0 2 1;
#X connect 17 0 18 0;
#X connect 18 0 3 1;
#X connect 19 0 20 0;
#X connect 20 0 4 1;
#X connect 21 0 22 0;
#X connect 22 0 5 1;
#X connect 23 0 24 0;
#X connect 24 0 6 1;
#X connect 25 0 26 0;
#X connect 26 0 7 1;
#X connect 27 0 17 0;
#X connect 28 0 19 0;
#X connect 29 0 21 0;
#X connect 30 0 23 0;
#X connect 31 0 25 0;
#X restore 1201 574 pd switchboard;
#N canvas 973 149 707 664 birds 0;
#X obj 148 218 readsf~;
#X msg 178 188 1;
#X obj 246 119 bng 15 250 50 0 empty empty empty 17 7 0 10 -262144
-1 -1;
#X obj 149 70 inlet;
#X obj 143 258 outlet~;
#X msg 134 162 open bird-chirps.aif;
#X connect 0 0 4 0;
#X connect 1 0 0 0;
#X connect 2 0 5 0;
#X connect 2 0 1 0;
#X connect 3 0 2 0;
#X connect 5 0 0 0;
#X restore 1164 436 pd birds;
#X obj 1258 412 bng 15 250 50 0 empty empty empty 17 7 0 10 -262144
-1 -1;
#X obj 1260 392 r triggerCrickets;
#N canvas 973 149 707 664 crickets 0;
#X obj 148 218 readsf~;
#X msg 178 188 1;
#X obj 144 93 bng 15 250 50 0 empty empty empty 17 7 0 10 -262144 -1
-1;
#X obj 149 70 inlet;
#X obj 143 258 outlet~;
#X msg 134 162 open crickets.aif;
#X connect 0 0 4 0;
#X connect 1 0 0 0;
#X connect 2 0 5 0;
#X connect 2 0 1 0;
#X connect 3 0 2 0;
#X connect 5 0 0 0;
#X restore 1257 435 pd crickets;
#X obj 1375 416 bng 15 250 50 0 empty empty empty 17 7 0 10 -262144
-1 -1;
#X obj 1377 392 r triggerLoon;
#N canvas 973 149 707 664 loon 0;
#X obj 148 218 readsf~;
#X msg 178 188 1;
#X obj 144 93 bng 15 250 50 0 empty empty empty 17 7 0 10 -262144 -1
-1;
#X obj 149 70 inlet;
#X obj 143 258 outlet~;
#X msg 134 162 open loon-call.aif;
#X connect 0 0 4 0;
#X connect 1 0 0 0;
#X connect 2 0 5 0;
#X connect 2 0 1 0;
#X connect 3 0 2 0;
#X connect 5 0 0 0;
#X restore 1373 438 pd loon;
#X obj 1556 336 vsl 15 128 0 1 0 0 empty empty empty 0 -9 0 10 -262144
-1 -1 6350 1;
#X floatatom 1556 469 5 0 0 0 - - -;
#X msg 1554 310 0.5;
#X obj 1136 662 *~ 0.5;
#X obj 1186 662 *~ 0.5;
#X obj 1234 662 *~ 0.5;
#X obj 1281 662 *~ 0.5;
#X obj 1332 663 *~ 0.5;
#X obj 1383 664 *~ 0.5;
#X floatatom 279 651 5 0 0 0 - - -;
#X obj 155 482 loadbang;
#X obj 364 560 + 60000;
#X obj 265 583 random 120000;
#X obj 188 548 metro 180000;
#X obj 419 -5 dac~ 9 10;
#N canvas 0 25 1082 732 pumpControl 0;
#X obj 569 48 tgl 17 0 empty empty empty 17 7 0 10 -262144 -1 -1 1
1;
#X obj 569 130 bng 17 250 50 0 empty empty empty 17 7 0 10 -262144
-1 -1;
#X obj 569 70 t f f;
#X obj 569 97 metro 1 60 permin;
#X obj 571 179 float;
#X obj 643 183 + 1;
#X floatatom 568 225 10 0 0 0 - - -;
#X obj 754 315 bng 15 250 50 0 empty empty empty 17 7 0 10 -262144
-1 -1;
#X obj 537 351 bng 15 250 50 0 empty empty empty 17 7 0 10 -262144
-1 -1;
#X obj 635 348 bng 15 250 50 0 empty empty empty 17 7 0 10 -262144
-1 -1;
#X text 516 348 on;
#X text 602 347 off;
#X obj 651 303 del 200;
#X msg 744 241 0;
#X obj 562 275 sel 1 1800 21600;
#X obj 614 15 inlet;
#X msg 524 403 1;
#X obj 522 441 sig~;
#X obj 627 437 sig~;
#X msg 629 399 0;
#X obj 576 505 outlet~;
#X connect 0 0 2 0;
#X connect 1 0 4 0;
#X connect 2 0 3 0;
#X connect 3 0 1 0;
#X connect 4 0 5 0;
#X connect 4 0 6 0;
#X connect 5 0 4 1;
#X connect 6 0 14 0;
#X connect 7 0 13 0;
#X connect 8 0 16 0;
#X connect 9 0 19 0;
#X connect 12 0 7 0;
#X connect 13 0 4 1;
#X connect 14 0 8 0;
#X connect 14 1 9 0;
#X connect 14 2 12 0;
#X connect 15 0 0 0;
#X connect 15 0 13 0;
#X connect 16 0 17 0;
#X connect 17 0 20 0;
#X connect 18 0 20 0;
#X connect 19 0 18 0;
#X restore 394 -46 pd pumpControl;
#N canvas 1735 41 1790 971 chordSequence 0;
#X obj 46 578 osc~;
#X obj 108 575 osc~;
#X obj 51 435 line;
#X obj 115 436 line;
#X obj 181 436 line;
#X obj 267 434 line;
#X obj 353 433 line;
#X obj 432 428 line;
#X obj 190 142 bng 15 250 50 0 empty empty empty 17 7 0 10 -262144
-1 -1;
#X obj 433 140 bng 15 250 50 0 empty empty empty 17 7 0 10 -262144
-1 -1;
#N canvas 1866 217 1202 439 Fmaj7 0;
#X obj 250 37 inlet;
#X obj 418 367 outlet;
#X obj 477 367 outlet;
#X obj 537 367 outlet;
#X obj 594 367 outlet;
#X obj 650 367 outlet;
#X obj 705 368 outlet;
#X obj 80 142 mtof;
#X obj 137 138 mtof;
#X obj 183 142 mtof;
#X obj 240 142 mtof;
#X obj 302 141 mtof;
#X obj 362 145 mtof;
#X msg 80 112 41;
#X msg 137 110 48;
#X msg 183 114 52;
#X msg 241 114 57;
#X msg 302 114 60;
#X msg 362 118 64;
#X connect 0 0 13 0;
#X connect 0 0 14 0;
#X connect 0 0 15 0;
#X connect 0 0 16 0;
#X connect 0 0 17 0;
#X connect 0 0 18 0;
#X connect 7 0 1 0;
#X connect 8 0 2 0;
#X connect 9 0 3 0;
#X connect 10 0 4 0;
#X connect 11 0 5 0;
#X connect 12 0 6 0;
#X connect 13 0 7 0;
#X connect 14 0 8 0;
#X connect 15 0 9 0;
#X connect 16 0 10 0;
#X connect 17 0 11 0;
#X connect 18 0 12 0;
#X restore 186 190 pd Fmaj7;
#X msg 51 405 \$1 250;
#X msg 115 406 \$1 250;
#X msg 180 406 \$1 250;
#X msg 249 405 \$1 250;
#X msg 313 405 \$1 250;
#X msg 376 407 \$1 250;
#X obj 44 643 *~;
#X obj 111 642 *~;
#X obj 174 644 *~;
#X obj 241 645 *~;
#X obj 302 648 *~;
#X obj 371 645 *~;
#X obj 524 573 osc~;
#X obj 589 568 osc~;
#X obj 655 565 osc~;
#X obj 722 569 osc~;
#X obj 785 570 osc~;
#X obj 848 573 osc~;
#X obj 525 436 line;
#X obj 589 437 line;
#X obj 655 437 line;
#X obj 723 436 line;
#X obj 787 436 line;
#X obj 850 438 line;
#X msg 525 406 \$1 250;
#X msg 589 407 \$1 250;
#X msg 654 407 \$1 250;
#X msg 723 406 \$1 250;
#X msg 787 406 \$1 250;
#X msg 850 408 \$1 250;
#X obj 522 616 *~;
#X obj 589 616 *~;
#X obj 652 618 *~;
#X obj 719 619 *~;
#X obj 781 619 *~;
#X obj 849 619 *~;
#N canvas 1866 217 1202 439 Bbmaj7 0;
#X obj 593 132 inlet;
#X obj 418 367 outlet;
#X obj 477 367 outlet;
#X obj 537 367 outlet;
#X obj 594 367 outlet;
#X obj 650 367 outlet;
#X obj 705 368 outlet;
#X obj 423 237 mtof;
#X obj 480 233 mtof;
#X obj 526 237 mtof;
#X obj 583 237 mtof;
#X obj 645 236 mtof;
#X obj 705 240 mtof;
#X msg 584 209 57;
#X msg 645 209 60;
#X msg 705 213 65;
#X msg 423 207 46;
#X msg 480 205 50;
#X msg 526 209 53;
#X connect 0 0 16 0;
#X connect 0 0 17 0;
#X connect 0 0 18 0;
#X connect 0 0 13 0;
#X connect 0 0 14 0;
#X connect 0 0 15 0;
#X connect 7 0 1 0;
#X connect 8 0 2 0;
#X connect 9 0 3 0;
#X connect 10 0 4 0;
#X connect 11 0 5 0;
#X connect 12 0 6 0;
#X connect 13 0 10 0;
#X connect 14 0 11 0;
#X connect 15 0 12 0;
#X connect 16 0 7 0;
#X connect 17 0 8 0;
#X connect 18 0 9 0;
#X restore 437 178 pd Bbmaj7;
#N canvas 2380 25 1202 439 Gmin7 0;
#X obj 593 132 inlet;
#X obj 418 367 outlet;
#X obj 477 367 outlet;
#X obj 537 367 outlet;
#X obj 594 367 outlet;
#X obj 650 367 outlet;
#X obj 705 368 outlet;
#X obj 423 237 mtof;
#X obj 480 233 mtof;
#X obj 526 237 mtof;
#X obj 583 237 mtof;
#X obj 645 236 mtof;
#X obj 705 240 mtof;
#X msg 480 205 46;
#X msg 526 209 50;
#X msg 705 213 65;
#X msg 423 207 43;
#X msg 584 209 58;
#X msg 645 209 62;
#X connect 0 0 16 0;
#X connect 0 0 13 0;
#X connect 0 0 14 0;
#X connect 0 0 17 0;
#X connect 0 0 18 0;
#X connect 0 0 15 0;
#X connect 7 0 1 0;
#X connect 8 0 2 0;
#X connect 9 0 3 0;
#X connect 10 0 4 0;
#X connect 11 0 5 0;
#X connect 12 0 6 0;
#X connect 13 0 8 0;
#X connect 14 0 9 0;
#X connect 15 0 12 0;
#X connect 16 0 7 0;
#X connect 17 0 10 0;
#X connect 18 0 11 0;
#X restore 516 177 pd Gmin7;
#X obj 522 145 bng 15 250 50 0 empty empty empty 17 7 0 10 -262144
-1 -1;
#N canvas 2177 456 1202 439 Dmin7 0;
#X obj 593 132 inlet;
#X obj 418 367 outlet;
#X obj 477 367 outlet;
#X obj 537 367 outlet;
#X obj 594 367 outlet;
#X obj 650 367 outlet;
#X obj 705 368 outlet;
#X obj 423 237 mtof;
#X obj 480 233 mtof;
#X obj 526 237 mtof;
#X obj 583 237 mtof;
#X obj 645 236 mtof;
#X obj 705 240 mtof;
#X msg 526 209 53;
#X msg 584 209 57;
#X msg 423 207 38;
#X msg 480 205 45;
#X msg 645 209 60;
#X msg 705 213 62;
#X connect 0 0 15 0;
#X connect 0 0 16 0;
#X connect 0 0 13 0;
#X connect 0 0 14 0;
#X connect 0 0 17 0;
#X connect 0 0 18 0;
#X connect 7 0 1 0;
#X connect 8 0 2 0;
#X connect 9 0 3 0;
#X connect 10 0 4 0;
#X connect 11 0 5 0;
#X connect 12 0 6 0;
#X connect 13 0 9 0;
#X connect 14 0 10 0;
#X connect 15 0 7 0;
#X connect 16 0 8 0;
#X connect 17 0 11 0;
#X connect 18 0 12 0;
#X restore 284 186 pd Dmin7;
#X obj 285 136 bng 15 250 50 0 empty empty empty 17 7 0 10 -262144
-1 -1;
#N canvas 2177 275 1202 620 Ebmaj7 0;
#X obj 593 132 inlet;
#X obj 418 367 outlet;
#X obj 477 367 outlet;
#X obj 537 367 outlet;
#X obj 594 367 outlet;
#X obj 650 367 outlet;
#X obj 705 368 outlet;
#X obj 423 237 mtof;
#X obj 480 233 mtof;
#X obj 526 237 mtof;
#X obj 583 237 mtof;
#X obj 645 236 mtof;
#X obj 705 240 mtof;
#X msg 423 207 39;
#X msg 479 205 46;
#X msg 526 209 50;
#X msg 584 209 55;
#X msg 645 209 58;
#X msg 705 213 62;
#X connect 0 0 13 0;
#X connect 0 0 14 0;
#X connect 0 0 15 0;
#X connect 0 0 16 0;
#X connect 0 0 17 0;
#X connect 0 0 18 0;
#X connect 7 0 1 0;
#X connect 8 0 2 0;
#X connect 9 0 3 0;
#X connect 10 0 4 0;
#X connect 11 0 5 0;
#X connect 12 0 6 0;
#X connect 13 0 7 0;
#X connect 14 0 8 0;
#X connect 15 0 9 0;
#X connect 16 0 10 0;
#X connect 17 0 11 0;
#X connect 18 0 12 0;
#X restore 365 182 pd Ebmaj7;
#X obj 364 137 bng 15 250 50 0 empty empty empty 17 7 0 10 -262144
-1 -1;
#N canvas 2177 275 1202 620 Abmaj7 0;
#X obj 593 132 inlet;
#X obj 418 367 outlet;
#X obj 477 367 outlet;
#X obj 537 367 outlet;
#X obj 594 367 outlet;
#X obj 650 367 outlet;
#X obj 705 368 outlet;
#X obj 423 237 mtof;
#X obj 480 233 mtof;
#X obj 526 237 mtof;
#X obj 583 237 mtof;
#X obj 645 236 mtof;
#X obj 705 240 mtof;
#X msg 480 205 51;
#X msg 705 213 67;
#X msg 526 209 56;
#X msg 584 209 60;
#X msg 645 209 63;
#X msg 423 207 44;
#X connect 0 0 18 0;
#X connect 0 0 13 0;
#X connect 0 0 15 0;
#X connect 0 0 16 0;
#X connect 0 0 17 0;
#X connect 0 0 14 0;
#X connect 7 0 1 0;
#X connect 8 0 2 0;
#X connect 9 0 3 0;
#X connect 10 0 4 0;
#X connect 11 0 5 0;
#X connect 12 0 6 0;
#X connect 13 0 8 0;
#X connect 14 0 12 0;
#X connect 15 0 9 0;
#X connect 16 0 10 0;
#X connect 17 0 11 0;
#X connect 18 0 7 0;
#X restore 660 178 pd Abmaj7;
#X obj 665 141 bng 15 250 50 0 empty empty empty 17 7 0 10 -262144
-1 -1;
#N canvas 2177 275 1202 620 Cmin7 0;
#X obj 593 132 inlet;
#X obj 418 367 outlet;
#X obj 477 367 outlet;
#X obj 537 367 outlet;
#X obj 594 367 outlet;
#X obj 650 367 outlet;
#X obj 705 368 outlet;
#X obj 423 237 mtof;
#X obj 480 233 mtof;
#X obj 526 237 mtof;
#X obj 583 237 mtof;
#X obj 645 236 mtof;
#X obj 705 240 mtof;
#X msg 423 207 48;
#X msg 480 205 51;
#X msg 526 209 55;
#X msg 584 209 58;
#X msg 645 209 63;
#X msg 705 213 67;
#X connect 0 0 13 0;
#X connect 0 0 14 0;
#X connect 0 0 15 0;
#X connect 0 0 16 0;
#X connect 0 0 17 0;
#X connect 0 0 18 0;
#X connect 7 0 1 0;
#X connect 8 0 2 0;
#X connect 9 0 3 0;
#X connect 10 0 4 0;
#X connect 11 0 5 0;
#X connect 12 0 6 0;
#X connect 13 0 7 0;
#X connect 14 0 8 0;
#X connect 15 0 9 0;
#X connect 16 0 10 0;
#X connect 17 0 11 0;
#X connect 18 0 12 0;
#X restore 586 178 pd Cmin7;
#X obj 584 142 bng 15 250 50 0 empty empty empty 17 7 0 10 -262144
-1 -1;
#X obj 762 143 bng 15 250 50 0 empty empty empty 17 7 0 10 -262144
-1 -1;
#X obj 514 644 *~ 0.7;
#X obj 580 646 *~ 0.7;
#X obj 641 647 *~ 0.7;
#X obj 708 648 *~ 0.7;
#X obj 772 650 *~ 0.7;
#X obj 846 647 *~ 0.7;
#X obj 726 804 outlet~;
#X obj 793 806 outlet~;
#X obj 866 807 outlet~;
#X obj 940 806 outlet~;
#X obj 1009 808 outlet~;
#X obj 1080 807 outlet~;
#N canvas 2177 275 1202 620 Gbmaj7 0;
#X obj 593 132 inlet;
#X obj 418 367 outlet;
#X obj 477 367 outlet;
#X obj 537 367 outlet;
#X obj 594 367 outlet;
#X obj 650 367 outlet;
#X obj 705 368 outlet;
#X obj 423 237 mtof;
#X obj 480 233 mtof;
#X obj 526 237 mtof;
#X obj 583 237 mtof;
#X obj 645 236 mtof;
#X obj 705 240 mtof;
#X msg 423 207 42;
#X msg 480 205 49;
#X msg 584 209 58;
#X msg 645 209 61;
#X msg 705 213 65;
#X msg 526 209 54;
#X connect 0 0 13 0;
#X connect 0 0 14 0;
#X connect 0 0 18 0;
#X connect 0 0 15 0;
#X connect 0 0 16 0;
#X connect 0 0 17 0;
#X connect 7 0 1 0;
#X connect 8 0 2 0;
#X connect 9 0 3 0;
#X connect 10 0 4 0;
#X connect 11 0 5 0;
#X connect 12 0 6 0;
#X connect 13 0 7 0;
#X connect 14 0 8 0;
#X connect 15 0 10 0;
#X connect 16 0 11 0;
#X connect 17 0 12 0;
#X connect 18 0 9 0;
#X restore 756 180 pd Gbmaj7;
#X obj 473 13 inlet;
#X obj 438 73 sel 0 1 2 3 4 5 6 7;
#X obj 920 25 inlet;
#X obj 1059 17 inlet;
#X obj 965 532 osc~;
#X obj 1406 296 hsl 128 15 0 6 0 0 empty empty empty -2 -8 0 10 -262144
-1 -1 7016 1;
#X floatatom 1469 315 5 0 0 0 - - -;
#X obj 1262 338 <= 1;
#X obj 1314 343 > 1;
#X obj 1347 342 <= 2;
#X obj 1328 367 &&;
#X obj 1408 370 &&;
#X obj 1395 342 > 2;
#X obj 1428 341 <= 3;
#X obj 1485 366 &&;
#X obj 1472 339 > 3;
#X obj 1504 338 <= 4;
#X obj 1556 365 &&;
#X obj 1543 338 > 4;
#X obj 1575 337 <= 5;
#X obj 1617 335 > 5;
#X obj 1261 384 line;
#X msg 1261 360 \$1 500;
#X floatatom 1261 411 5 0 0 0 - - -;
#X floatatom 1327 435 5 0 0 0 - - -;
#X floatatom 1408 434 5 0 0 0 - - -;
#X floatatom 1484 431 5 0 0 0 - - -;
#X floatatom 1555 430 5 0 0 0 - - -;
#X floatatom 1629 427 5 0 0 0 - - -;
#X obj 1327 410 line;
#X msg 1327 391 \$1 500;
#X obj 1408 410 line;
#X msg 1408 391 \$1 500;
#X obj 1486 408 line;
#X msg 1486 389 \$1 500;
#X obj 1555 406 line;
#X msg 1555 387 \$1 500;
#X obj 1618 392 line;
#X msg 1618 373 \$1 500;
#X obj 957 657 *~ 0;
#X obj 991 662 *~ 0;
#X obj 1028 665 *~ 0;
#X obj 1070 657 *~ 0;
#X obj 1109 658 *~ 0;
#X obj 1148 657 *~ 0;
#X obj 1255 116 *~ 2;
#X obj 1255 138 -~ 1;
#X obj 1254 168 clip~ 0 1;
#X obj 1337 115 *~ 2;
#X obj 1337 137 -~ 1;
#X obj 1336 167 clip~ 0 1;
#X obj 1255 91 phasor~;
#X obj 1338 90 phasor~;
#X obj 1338 58 * -1;
#X msg 1411 64 0;
#X obj 1301 207 +~;
#X obj 1303 16 loadbang;
#X obj 1447 189 snapshot~;
#X obj 1481 118 metro 50;
#X obj 1487 84 tgl 15 0 empty empty empty 17 7 0 10 -262144 -1 -1 1
1;
#X obj 1438 231 * 6;
#X msg 1260 52 0.01;
#X msg 888 208 67;
#X obj 891 383 mtof;
#X obj 932 385 mtof;
#X msg 929 210 65;
#X obj 973 383 mtof;
#X msg 970 208 69;
#X obj 1009 383 mtof;
#X msg 1006 208 70;
#X obj 1047 383 mtof;
#X msg 1044 208 68;
#X obj 1052 575 *~;
#X obj 1200 15 inlet;
#X msg 963 414 \$1 250;
#X obj 962 440 line;
#X obj 525 368 / 2;
#X obj 588 371 / 2;
#X obj 653 372 / 2;
#X obj 722 375 / 2;
#X obj 786 376 / 2;
#X obj 850 373 / 2;
#X obj 1109 475 osc~;
#X msg 1125 343 \$1 250;
#X obj 1124 369 line;
#X obj 1054 302 / 2;
#X obj 1096 305 / 2;
#X obj 1135 306 / 2;
#X obj 1173 304 / 2;
#X obj 1210 302 / 2;
#X obj 1053 277 mtof;
#X obj 1094 276 mtof;
#X obj 1135 274 mtof;
#X obj 1171 274 mtof;
#X obj 1209 276 mtof;
#X obj 969 560 *~;
#X obj 1110 509 *~;
#X obj 43 617 *~ 0.5;
#X obj 110 613 *~ 0.5;
#X obj 184 576 osc~;
#X obj 191 613 *~ 0.5;
#X obj 263 572 osc~;
#X obj 271 612 *~ 0.5;
#X obj 346 572 osc~;
#X obj 352 612 *~ 0.5;
#X obj 429 570 osc~;
#X obj 435 610 *~ 0.5;
#X obj 50 563 +~;
#X obj 111 560 +~;
#X obj 176 563 +~;
#X obj 258 557 +~;
#X obj 350 549 +~;
#X obj 429 548 +~;
#X obj 40 473 osc~;
#X obj 40 531 *~;
#X obj 135 474 osc~;
#X obj 135 532 *~;
#X obj 196 473 osc~;
#X obj 196 531 *~;
#X obj 272 476 osc~;
#X obj 272 534 *~;
#X obj 330 469 osc~;
#X obj 330 527 *~;
#X obj 438 464 osc~;
#X obj 438 522 *~;
#X obj 531 537 +~;
#X obj 587 542 +~;
#X obj 654 540 +~;
#X obj 731 541 +~;
#X obj 788 537 +~;
#X obj 853 534 +~;
#X obj 526 468 osc~;
#X obj 526 500 *~;
#X obj 609 471 osc~;
#X obj 608 516 *~;
#X obj 672 477 osc~;
#X obj 669 515 *~;
#X obj 742 487 osc~;
#X obj 745 518 *~;
#X obj 807 476 osc~;
#X obj 803 511 *~;
#X obj 871 472 osc~;
#X obj 864 501 *~;
#X obj 998 515 +~;
#X obj 1016 453 osc~;
#X obj 1009 482 *~;
#X obj 1134 454 +~;
#X obj 1152 392 osc~;
#X obj 1145 421 *~;
#X connect 0 0 169 0;
#X connect 1 0 170 0;
#X connect 2 0 179 0;
#X connect 2 0 185 0;
#X connect 2 0 186 1;
#X connect 3 0 180 0;
#X connect 3 0 187 0;
#X connect 3 0 188 1;
#X connect 4 0 181 0;
#X connect 4 0 189 0;
#X connect 4 0 190 1;
#X connect 5 0 182 0;
#X connect 5 0 192 1;
#X connect 5 0 191 0;
#X connect 6 0 183 0;
#X connect 6 0 193 0;
#X connect 6 0 194 1;
#X connect 7 0 184 0;
#X connect 7 0 195 0;
#X connect 7 0 196 1;
#X connect 8 0 10 0;
#X connect 8 0 134 0;
#X connect 9 0 47 0;
#X connect 9 0 139 0;
#X connect 10 0 11 0;
#X connect 10 0 148 0;
#X connect 10 1 12 0;
#X connect 10 1 149 0;
#X connect 10 2 13 0;
#X connect 10 2 150 0;
#X connect 10 3 14 0;
#X connect 10 3 151 0;
#X connect 10 4 15 0;
#X connect 10 4 152 0;
#X connect 10 5 16 0;
#X connect 10 5 153 0;
#X connect 11 0 2 0;
#X connect 12 0 3 0;
#X connect 13 0 4 0;
#X connect 14 0 5 0;
#X connect 15 0 6 0;
#X connect 16 0 7 0;
#X connect 17 0 65 0;
#X connect 18 0 66 0;
#X connect 19 0 67 0;
#X connect 20 0 68 0;
#X connect 21 0 69 0;
#X connect 22 0 70 0;
#X connect 23 0 41 0;
#X connect 24 0 42 0;
#X connect 25 0 43 0;
#X connect 26 0 44 0;
#X connect 27 0 45 0;
#X connect 28 0 46 0;
#X connect 29 0 203 0;
#X connect 29 0 204 1;
#X connect 29 0 197 0;
#X connect 30 0 205 0;
#X connect 30 0 206 1;
#X connect 30 0 198 0;
#X connect 31 0 207 0;
#X connect 31 0 208 1;
#X connect 31 0 199 0;
#X connect 32 0 200 0;
#X connect 32 0 209 0;
#X connect 32 0 210 1;
#X connect 33 0 211 0;
#X connect 33 0 201 0;
#X connect 33 0 212 1;
#X connect 34 0 202 0;
#X connect 34 0 213 0;
#X connect 34 0 214 1;
#X connect 35 0 29 0;
#X connect 36 0 30 0;
#X connect 37 0 31 0;
#X connect 38 0 32 0;
#X connect 39 0 33 0;
#X connect 40 0 34 0;
#X connect 41 0 59 0;
#X connect 42 0 60 0;
#X connect 43 0 61 0;
#X connect 44 0 62 0;
#X connect 45 0 63 0;
#X connect 46 0 64 0;
#X connect 47 0 11 0;
#X connect 47 0 148 0;
#X connect 47 1 12 0;
#X connect 47 1 149 0;
#X connect 47 2 13 0;
#X connect 47 2 150 0;
#X connect 47 3 14 0;
#X connect 47 3 151 0;
#X connect 47 4 15 0;
#X connect 47 4 152 0;
#X connect 47 5 16 0;
#X connect 47 5 153 0;
#X connect 48 0 11 0;
#X connect 48 0 148 0;
#X connect 48 1 12 0;
#X connect 48 1 149 0;
#X connect 48 2 13 0;
#X connect 48 2 150 0;
#X connect 48 3 14 0;
#X connect 48 3 151 0;
#X connect 48 4 15 0;
#X connect 48 4 152 0;
#X connect 48 5 16 0;
#X connect 48 5 153 0;
#X connect 49 0 48 0;
#X connect 49 0 139 0;
#X connect 50 0 11 0;
#X connect 50 0 148 0;
#X connect 50 1 12 0;
#X connect 50 1 149 0;
#X connect 50 2 13 0;
#X connect 50 2 150 0;
#X connect 50 3 14 0;
#X connect 50 3 151 0;
#X connect 50 4 15 0;
#X connect 50 4 152 0;
#X connect 50 5 16 0;
#X connect 50 5 153 0;
#X connect 51 0 50 0;
#X connect 51 0 137 0;
#X connect 52 0 11 0;
#X connect 52 0 148 0;
#X connect 52 1 12 0;
#X connect 52 1 149 0;
#X connect 52 2 13 0;
#X connect 52 2 150 0;
#X connect 52 3 14 0;
#X connect 52 3 151 0;
#X connect 52 4 15 0;
#X connect 52 4 152 0;
#X connect 52 5 16 0;
#X connect 52 5 153 0;
#X connect 53 0 52 0;
#X connect 53 0 137 0;
#X connect 54 0 11 0;
#X connect 54 0 148 0;
#X connect 54 1 12 0;
#X connect 54 1 149 0;
#X connect 54 2 13 0;
#X connect 54 2 150 0;
#X connect 54 3 14 0;
#X connect 54 3 151 0;
#X connect 54 4 15 0;
#X connect 54 4 152 0;
#X connect 54 5 16 0;
#X connect 54 5 153 0;
#X connect 55 0 54 0;
#X connect 55 0 141 0;
#X connect 56 0 11 0;
#X connect 56 0 148 0;
#X connect 56 1 12 0;
#X connect 56 1 149 0;
#X connect 56 2 13 0;
#X connect 56 2 150 0;
#X connect 56 3 14 0;
#X connect 56 3 151 0;
#X connect 56 4 15 0;
#X connect 56 4 152 0;
#X connect 56 5 16 0;
#X connect 56 5 153 0;
#X connect 57 0 56 0;
#X connect 57 0 141 0;
#X connect 58 0 71 0;
#X connect 58 0 143 0;
#X connect 59 0 65 0;
#X connect 60 0 66 0;
#X connect 61 0 67 0;
#X connect 62 0 68 0;
#X connect 63 0 69 0;
#X connect 64 0 70 0;
#X connect 71 0 11 0;
#X connect 71 0 148 0;
#X connect 71 1 12 0;
#X connect 71 1 149 0;
#X connect 71 2 13 0;
#X connect 71 2 150 0;
#X connect 71 3 14 0;
#X connect 71 3 151 0;
#X connect 71 4 15 0;
#X connect 71 4 152 0;
#X connect 71 5 16 0;
#X connect 71 5 153 0;
#X connect 72 0 73 0;
#X connect 73 0 8 0;
#X connect 73 1 51 0;
#X connect 73 2 53 0;
#X connect 73 3 9 0;
#X connect 73 4 49 0;
#X connect 73 5 57 0;
#X connect 73 6 55 0;
#X connect 73 7 58 0;
#X connect 74 0 17 1;
#X connect 74 0 18 1;
#X connect 74 0 19 1;
#X connect 74 0 20 1;
#X connect 74 0 21 1;
#X connect 74 0 22 1;
#X connect 74 0 167 1;
#X connect 75 0 41 1;
#X connect 75 0 42 1;
#X connect 75 0 43 1;
#X connect 75 0 44 1;
#X connect 75 0 45 1;
#X connect 75 0 46 1;
#X connect 75 0 168 1;
#X connect 76 0 167 0;
#X connect 77 0 78 0;
#X connect 78 0 79 0;
#X connect 78 0 80 0;
#X connect 78 0 81 0;
#X connect 78 0 84 0;
#X connect 78 0 85 0;
#X connect 78 0 87 0;
#X connect 78 0 88 0;
#X connect 78 0 90 0;
#X connect 78 0 91 0;
#X connect 78 0 92 0;
#X connect 79 0 94 0;
#X connect 80 0 82 0;
#X connect 81 0 82 1;
#X connect 82 0 102 0;
#X connect 83 0 104 0;
#X connect 84 0 83 0;
#X connect 85 0 83 1;
#X connect 86 0 106 0;
#X connect 87 0 86 0;
#X connect 88 0 86 1;
#X connect 89 0 108 0;
#X connect 90 0 89 0;
#X connect 91 0 89 1;
#X connect 92 0 110 0;
#X connect 93 0 95 0;
#X connect 94 0 93 0;
#X connect 95 0 111 1;
#X connect 96 0 112 1;
#X connect 97 0 113 1;
#X connect 98 0 114 1;
#X connect 99 0 115 1;
#X connect 100 0 116 1;
#X connect 101 0 96 0;
#X connect 102 0 101 0;
#X connect 103 0 97 0;
#X connect 104 0 103 0;
#X connect 105 0 98 0;
#X connect 106 0 105 0;
#X connect 107 0 99 0;
#X connect 108 0 107 0;
#X connect 109 0 100 0;
#X connect 110 0 109 0;
#X connect 111 0 65 0;
#X connect 112 0 66 0;
#X connect 113 0 67 0;
#X connect 114 0 68 0;
#X connect 115 0 69 0;
#X connect 116 0 70 0;
#X connect 117 0 118 0;
#X connect 118 0 119 0;
#X connect 119 0 127 0;
#X connect 120 0 121 0;
#X connect 121 0 122 0;
#X connect 122 0 127 1;
#X connect 123 0 117 0;
#X connect 124 0 120 0;
#X connect 125 0 124 0;
#X connect 126 0 124 1;
#X connect 126 0 123 1;
#X connect 127 0 129 0;
#X connect 128 0 133 0;
#X connect 128 0 126 0;
#X connect 128 0 131 0;
#X connect 129 0 132 0;
#X connect 130 0 129 0;
#X connect 131 0 130 0;
#X connect 132 0 77 0;
#X connect 133 0 125 0;
#X connect 133 0 123 0;
#X connect 134 0 135 0;
#X connect 134 0 162 0;
#X connect 135 0 146 0;
#X connect 136 0 146 0;
#X connect 137 0 136 0;
#X connect 137 0 163 0;
#X connect 138 0 146 0;
#X connect 139 0 138 0;
#X connect 139 0 164 0;
#X connect 140 0 146 0;
#X connect 141 0 140 0;
#X connect 141 0 165 0;
#X connect 142 0 146 0;
#X connect 143 0 142 0;
#X connect 143 0 166 0;
#X connect 144 0 111 0;
#X connect 144 0 112 0;
#X connect 144 0 113 0;
#X connect 144 0 114 0;
#X connect 144 0 115 0;
#X connect 144 0 116 0;
#X connect 145 0 144 1;
#X connect 146 0 147 0;
#X connect 147 0 215 0;
#X connect 147 0 216 0;
#X connect 147 0 217 1;
#X connect 148 0 35 0;
#X connect 149 0 36 0;
#X connect 150 0 37 0;
#X connect 151 0 38 0;
#X connect 152 0 39 0;
#X connect 153 0 40 0;
#X connect 154 0 168 0;
#X connect 155 0 156 0;
#X connect 156 0 219 0;
#X connect 156 0 220 1;
#X connect 156 0 218 0;
#X connect 157 0 155 0;
#X connect 158 0 155 0;
#X connect 159 0 155 0;
#X connect 160 0 155 0;
#X connect 161 0 155 0;
#X connect 162 0 157 0;
#X connect 163 0 158 0;
#X connect 164 0 159 0;
#X connect 165 0 160 0;
#X connect 166 0 161 0;
#X connect 167 0 144 0;
#X connect 168 0 144 0;
#X connect 169 0 17 0;
#X connect 170 0 18 0;
#X connect 171 0 172 0;
#X connect 172 0 19 0;
#X connect 173 0 174 0;
#X connect 174 0 20 0;
#X connect 175 0 176 0;
#X connect 176 0 21 0;
#X connect 177 0 178 0;
#X connect 178 0 22 0;
#X connect 179 0 0 0;
#X connect 180 0 1 0;
#X connect 181 0 171 0;
#X connect 182 0 173 0;
#X connect 183 0 175 0;
#X connect 184 0 177 0;
#X connect 185 0 186 0;
#X connect 186 0 179 1;
#X connect 187 0 188 0;
#X connect 188 0 180 1;
#X connect 189 0 190 0;
#X connect 190 0 181 1;
#X connect 191 0 192 0;
#X connect 192 0 182 1;
#X connect 193 0 194 0;
#X connect 194 0 183 1;
#X connect 195 0 196 0;
#X connect 196 0 184 1;
#X connect 197 0 23 0;
#X connect 198 0 24 0;
#X connect 199 0 25 0;
#X connect 200 0 26 0;
#X connect 201 0 27 0;
#X connect 202 0 28 0;
#X connect 203 0 204 0;
#X connect 204 0 197 1;
#X connect 205 0 206 0;
#X connect 206 0 198 1;
#X connect 207 0 208 0;
#X connect 208 0 199 1;
#X connect 209 0 210 0;
#X connect 210 0 200 1;
#X connect 211 0 212 0;
#X connect 212 0 201 1;
#X connect 213 0 214 0;
#X connect 214 0 202 1;
#X connect 215 0 76 0;
#X connect 216 0 217 0;
#X connect 217 0 215 1;
#X connect 218 0 154 0;
#X connect 219 0 220 0;
#X connect 220 0 218 1;
#X restore 909 600 pd chordSequence;
#X obj 956 569 r in;
#X obj 989 569 r out;
#N canvas 79 24 450 556 water-level 0;
#X obj 164 21 loadbang;
#X obj 62 159 snapshot~;
#X obj 127 112 metro 50;
#X obj 129 85 tgl 15 0 empty empty empty 17 7 0 10 -262144 -1 -1 1
1;
#X obj 133 484 outlet;
#X obj 61 67 inlet~;
#X obj 63 404 line~;
#X obj 133 446 snapshot~;
#X msg 63 382 \$1 1000;
#X text 185 128 Input Min;
#X text 290 128 Input Max;
#X floatatom 247 159 5 0 0 0 - - -;
#X floatatom 354 160 5 0 0 0 - - -;
#X msg 249 129 0.48;
#X msg 353 127 0.75;
#X obj 59 325 expr ($f1 -$f2)/($f3-$f2);
#X connect 0 0 3 0;
#X connect 0 0 13 0;
#X connect 0 0 14 0;
#X connect 1 0 15 0;
#X connect 2 0 1 0;
#X connect 2 0 7 0;
#X connect 3 0 2 0;
#X connect 5 0 1 0;
#X connect 6 0 7 0;
#X connect 7 0 4 0;
#X connect 8 0 6 0;
#X connect 11 0 15 1;
#X connect 12 0 15 2;
#X connect 13 0 11 0;
#X connect 14 0 12 0;
#X connect 15 0 8 0;
#X restore 1174 -30 pd water-level;
#X obj 1026 -83 adc~ 3 4 5 6 7 -----------------------------------------------------------
;
#X obj 901 545 float;
#X obj 945 545 + 1;
#X obj 917 569 sel 7;
#X msg 930 514 0;
#X obj 930 491 loadbang;
#X obj 1243 794 dac~ 27 28 29 30;
#X msg 1479 307 0.5;
#X obj 833 661 *~ 0.5;
#X obj 878 661 *~ 0.5;
#X obj 925 661 *~ 0.5;
#X obj 972 661 *~ 0.5;
#X obj 1019 661 *~ 0.5;
#X obj 1064 661 *~ 0.5;
#X text 1401 291 chord volume;
#X text 1551 290 sample volume;
#X text 223 467 trigger random sample out of random speaker every 1
to 3 mins;
#X text 676 427 count from 0 to 7 then reset to trigger each chord
in 8 chord sequence;
#X text 674 467 sensor can send bang to the float object each time
a threshold is reached;
#X obj 1058 415 bng 15 250 50 0 empty empty empty 17 7 0 10 -262144
-1 -1;
#N canvas 888 375 707 664 birds2 0;
#X obj 148 218 readsf~;
#X msg 178 188 1;
#X obj 246 119 bng 15 250 50 0 empty empty empty 17 7 0 10 -262144
-1 -1;
#X obj 149 70 inlet;
#X obj 143 258 outlet~;
#X msg 134 161 open bird-chirps-2.aif;
#X connect 0 0 4 0;
#X connect 1 0 0 0;
#X connect 2 0 5 0;
#X connect 2 0 1 0;
#X connect 3 0 2 0;
#X connect 5 0 0 0;
#X restore 1059 438 pd birds2;
#X obj 1059 394 r triggerBirds2;
#X obj 264 699 bng 15 250 50 0 empty empty empty 17 7 0 10 -262144
-1 -1;
#X obj 270 755 s triggerBirds2;
#X obj 1090 342 bng 15 250 50 0 empty empty empty 17 7 0 10 -262144
-1 -1;
#X obj 1092 318 r triggerLoon2;
#N canvas 947 430 707 664 loon2 0;
#X obj 148 218 readsf~;
#X msg 178 188 1;
#X obj 144 93 bng 15 250 50 0 empty empty empty 17 7 0 10 -262144 -1
-1;
#X obj 149 70 inlet;
#X obj 143 258 outlet~;
#X msg 134 162 open loon-call-2.aif;
#X connect 0 0 4 0;
#X connect 1 0 0 0;
#X connect 2 0 5 0;
#X connect 2 0 1 0;
#X connect 3 0 2 0;
#X connect 5 0 0 0;
#X restore 1088 364 pd loon2;
#X obj 297 701 bng 15 250 50 0 empty empty empty 17 7 0 10 -262144
-1 -1;
#X obj 299 733 s triggerLoon2;
#X obj 1206 341 bng 15 250 50 0 empty empty empty 17 7 0 10 -262144
-1 -1;
#X obj 1208 318 r triggerLoon3;
#N canvas 947 358 707 664 loon3 0;
#X obj 148 218 readsf~;
#X msg 178 188 1;
#X obj 144 93 bng 15 250 50 0 empty empty empty 17 7 0 10 -262144 -1
-1;
#X obj 149 70 inlet;
#X obj 143 258 outlet~;
#X msg 134 162 open loon-call-3.aif;
#X connect 0 0 4 0;
#X connect 1 0 0 0;
#X connect 2 0 5 0;
#X connect 2 0 1 0;
#X connect 3 0 2 0;
#X connect 5 0 0 0;
#X restore 1204 363 pd loon3;
#X obj 190 629 random 6;
#X obj 201 667 sel 0 1 2 3 4 5;
#X obj 331 700 bng 15 250 50 0 empty empty empty 17 7 0 10 -262144
-1 -1;
#X obj 371 756 s triggerLoon3;
#X obj 880 509 bng 15 250 50 0 empty empty empty 17 7 0 10 -262144
-1 -1;
#X obj 969 52 s wind;
#X obj 972 27 clip 0 1;
#N canvas 183 54 1249 686 breathingMossControl 0;
#X obj 1243 154;
#X obj 346 43 inlet;
#X obj 345 103 phasor~;
#X obj 427 13 loadbang;
#X msg 430 73 0;
#X obj 342 159 outlet~;
#X obj 321 130 expr~ $v1 > 0.5;
#X connect 1 0 2 0;
#X connect 2 0 6 0;
#X connect 3 0 4 0;
#X connect 4 0 2 1;
#X connect 6 0 5 0;
#X restore 517 -38 pd breathingMossControl;
#X text 507 -14 output 0 and 1 at regular intervals;
#X obj 1065 28 clip 0 1;
#X obj 1168 27 clip 0 1;
#X obj 1256 27 clip 0 1;
#X obj 1372 48 clip 0 1;
#X obj 982 546 del 100;
#X floatatom 758 293 10 0 0 0 - - -;
#X obj 698 284 tgl 15 0 empty empty empty 17 7 0 10 -262144 -1 -1 1
1;
#X obj 729 372 bng 15 250 50 0 empty empty empty 17 7 0 10 -262144
-1 -1;
#X obj 694 256 loadbang;
#X obj 903 334 + 60000;
#X obj 804 357 random 120000;
#X obj 727 322 metro 180000;
#X obj 1065 50 > 0.5;
#X obj 1064 74 change;
#X obj 1065 99 s moisture;
#X obj 87 559 r moisture;
#X obj 1371 72 s photo;
#X obj 1054 812 dac~ 1 2 3 4 5 6;
#X obj 833 734 lop~;
#X obj 1480 663 * 10000;
#X obj 880 733 lop~;
#X obj 925 733 lop~;
#X obj 972 732 lop~;
#X obj 1017 734 lop~;
#X obj 1064 733 lop~;
#X obj 1134 730 lop~;
#X obj 1181 729 lop~;
#X obj 1234 729 lop~;
#X obj 1280 728 lop~;
#X obj 1332 728 lop~;
#X obj 1379 727 lop~;
#X obj 1168 54 > 0.5;
#X obj 1167 78 change;
#X obj 1168 103 s waterLvl;
#X obj 751 501 r waterLvl;
#X obj 1257 55 > 0.5;
#X obj 1256 79 change;
#X obj 1255 101 s thermistor;
#X obj 744 540 r thermistor;
#X obj 1481 635 r photo;
#X obj 1043 566 r wind;
#X msg 1079 545 1;
#X msg 1463 612 1;
#X msg 538 -59 0.05;
#X text 578 -59 Cycle Frequency;
#N canvas 334 96 748 422 lightController 0;
#X msg 83 87 connect 192.168.0.102 8888 6000;
#X floatatom 363 576 5 0 0 0 - - -;
#X obj 431 573 print backward;
#X floatatom 386 401 5 0 0 0 - - -;
#X floatatom 451 402 5 0 0 0 - - -;
#X floatatom 531 402 5 0 0 0 - - -;
#X obj 317 350 bng 15 250 50 0 empty empty empty 17 7 0 10 -262144
-1 -1;
#X obj 522 261 snapshot~;
#X floatatom 525 356 5 0 0 0 - - -;
#X obj 525 327 int;
#X obj 357 64 bng 15 250 50 0 empty empty empty 17 7 0 10 -262144 -1
-1;
#X obj 357 93 metro;
#X floatatom 386 61 5 0 0 0 - - -;
#X obj 473 537 print;
#X obj 363 530 netsend -u;
#X obj 277 20 loadbang;
#X text 383 381 Hue;
#X text 436 381 Saturation;
#X text 528 377 Value;
#X obj 416 452 pack f f f;
#X msg 387 493 send \$1 \$2 \$3;
#X obj 83 37 metro 10000;
#X obj 533 83 inlet;
#X floatatom 521 163 5 0 0 0 - - -;
#X obj 520 184 * 255;
#X obj 469 100 inlet;
#X floatatom 460 162 5 0 0 0 - - -;
#X obj 460 182 * 255;
#X obj 453 258 snapshot~;
#X floatatom 456 353 5 0 0 0 - - -;
#X obj 456 326 int;
#X obj 385 259 snapshot~;
#X floatatom 389 353 5 0 0 0 - - -;
#X obj 389 326 int;
#X obj 414 100 inlet;
#X floatatom 405 162 5 0 0 0 - - -;
#X obj 405 182 * 255;
#X obj 407 128 clip 0 1;
#X obj 471 131 clip 0 1;
#X obj 541 132 clip 0 1;
#X obj 452 293 line 100;
#X obj 540 106 + 0.3;
#X msg 386 31 100;
#X obj 522 294 line 200;
#X obj 384 293 line 200;
#X connect 0 0 14 0;
#X connect 3 0 19 0;
#X connect 4 0 19 1;
#X connect 5 0 19 2;
#X connect 6 0 3 0;
#X connect 7 0 43 0;
#X connect 8 0 5 0;
#X connect 9 0 8 0;
#X connect 10 0 11 0;
#X connect 11 0 6 0;
#X connect 11 0 28 0;
#X connect 11 0 31 0;
#X connect 11 0 7 0;
#X connect 12 0 11 1;
#X connect 14 0 1 0;
#X connect 14 1 2 0;
#X connect 15 0 10 0;
#X connect 15 0 0 0;
#X connect 15 0 6 0;
#X connect 15 0 42 0;
#X connect 19 0 20 0;
#X connect 20 0 14 0;
#X connect 21 0 0 0;
#X connect 22 0 41 0;
#X connect 23 0 24 0;
#X connect 24 0 7 0;
#X connect 25 0 38 0;
#X connect 26 0 27 0;
#X connect 27 0 28 0;
#X connect 28 0 40 0;
#X connect 29 0 4 0;
#X connect 30 0 29 0;
#X connect 31 0 44 0;
#X connect 32 0 3 0;
#X connect 33 0 32 0;
#X connect 34 0 37 0;
#X connect 35 0 36 0;
#X connect 36 0 31 0;
#X connect 37 0 35 0;
#X connect 38 0 26 0;
#X connect 39 0 23 0;
#X connect 40 0 30 0;
#X connect 41 0 39 0;
#X connect 42 0 12 0;
#X connect 43 0 9 0;
#X connect 44 0 33 0;
#X restore 157 12 pd lightController;
#X obj 262 -20 r in;
#X text 154 32 Hue | Saturation | Value;
#X floatatom 209 -23 5 0 0 0 - - -;
#X obj 209 -70 loadbang;
#X text 280 -85 should output 1 for 30 minutes then 0 for 6 hours;
#X obj 137 -30 r photo;
#X msg 210 -46 0.9;
#X floatatom 833 578 5 0 0 0 - - -;
#X connect 3 0 11 0;
#X connect 3 0 12 1;
#X connect 3 0 53 0;
#X connect 3 0 142 0;
#X connect 4 0 5 0;
#X connect 7 0 96 0;
#X connect 8 0 102 0;
#X connect 9 0 101 0;
#X connect 10 0 99 0;
#X connect 11 0 12 0;
#X connect 12 0 0 0;
#X connect 12 1 1 0;
#X connect 13 0 51 1;
#X connect 14 0 51 0;
#X connect 15 0 90 0;
#X connect 16 0 19 0;
#X connect 17 0 20 0;
#X connect 18 0 21 0;
#X connect 22 0 23 0;
#X connect 23 0 66 1;
#X connect 23 0 67 1;
#X connect 23 0 68 1;
#X connect 23 0 69 1;
#X connect 23 0 70 1;
#X connect 23 0 71 1;
#X connect 24 0 65 0;
#X connect 24 0 40 0;
#X connect 25 0 26 0;
#X connect 26 0 30 1;
#X connect 27 0 25 0;
#X connect 28 0 27 0;
#X connect 28 0 31 0;
#X connect 29 0 28 0;
#X connect 30 0 41 0;
#X connect 30 1 42 0;
#X connect 30 2 43 0;
#X connect 30 3 44 0;
#X connect 30 4 45 0;
#X connect 30 5 46 0;
#X connect 31 0 30 0;
#X connect 32 0 27 0;
#X connect 32 0 34 0;
#X connect 33 0 32 0;
#X connect 34 0 30 0;
#X connect 35 0 37 0;
#X connect 35 0 27 0;
#X connect 36 0 35 0;
#X connect 37 0 30 0;
#X connect 38 0 39 0;
#X connect 39 0 41 1;
#X connect 39 0 42 1;
#X connect 39 0 43 1;
#X connect 39 0 44 1;
#X connect 39 0 45 1;
#X connect 39 0 46 1;
#X connect 40 0 38 0;
#X connect 41 0 124 0;
#X connect 42 0 125 0;
#X connect 43 0 126 0;
#X connect 44 0 127 0;
#X connect 45 0 128 0;
#X connect 46 0 129 0;
#X connect 48 0 14 0;
#X connect 49 0 13 0;
#X connect 50 0 49 0;
#X connect 51 0 15 0;
#X connect 51 0 50 0;
#X connect 53 0 52 0;
#X connect 54 0 66 0;
#X connect 54 1 67 0;
#X connect 54 2 68 0;
#X connect 54 3 69 0;
#X connect 54 4 70 0;
#X connect 54 5 71 0;
#X connect 55 0 54 1;
#X connect 56 0 54 2;
#X connect 57 0 100 0;
#X connect 58 0 7 0;
#X connect 58 1 10 0;
#X connect 58 2 57 0;
#X connect 58 3 9 0;
#X connect 58 4 8 0;
#X connect 59 0 60 0;
#X connect 59 0 61 0;
#X connect 59 0 152 0;
#X connect 60 0 59 1;
#X connect 61 0 103 0;
#X connect 61 1 54 0;
#X connect 62 0 59 1;
#X connect 63 0 62 0;
#X connect 63 0 94 0;
#X connect 65 0 22 0;
#X connect 66 0 117 0;
#X connect 67 0 119 0;
#X connect 68 0 120 0;
#X connect 69 0 121 0;
#X connect 70 0 122 0;
#X connect 71 0 123 0;
#X connect 77 0 78 0;
#X connect 77 0 27 0;
#X connect 78 0 30 0;
#X connect 79 0 77 0;
#X connect 80 0 81 0;
#X connect 82 0 84 0;
#X connect 82 0 27 0;
#X connect 83 0 82 0;
#X connect 84 0 30 0;
#X connect 85 0 86 0;
#X connect 87 0 89 0;
#X connect 87 0 27 0;
#X connect 88 0 87 0;
#X connect 89 0 30 0;
#X connect 90 0 47 0;
#X connect 90 0 91 0;
#X connect 91 0 16 0;
#X connect 91 1 17 0;
#X connect 91 2 18 0;
#X connect 91 3 80 0;
#X connect 91 4 85 0;
#X connect 91 5 92 0;
#X connect 92 0 93 0;
#X connect 94 0 59 0;
#X connect 96 0 95 0;
#X connect 97 0 52 1;
#X connect 99 0 111 0;
#X connect 100 0 130 0;
#X connect 101 0 134 0;
#X connect 102 0 115 0;
#X connect 103 0 62 0;
#X connect 104 0 110 1;
#X connect 105 0 110 0;
#X connect 106 0 94 0;
#X connect 107 0 105 0;
#X connect 108 0 104 0;
#X connect 109 0 108 0;
#X connect 110 0 106 0;
#X connect 110 0 109 0;
#X connect 111 0 112 0;
#X connect 112 0 113 0;
#X connect 117 0 116 0;
#X connect 118 0 117 1;
#X connect 118 0 119 1;
#X connect 118 0 120 1;
#X connect 118 0 121 1;
#X connect 118 0 122 1;
#X connect 118 0 123 1;
#X connect 118 0 124 1;
#X connect 118 0 125 1;
#X connect 118 0 126 1;
#X connect 118 0 127 1;
#X connect 118 0 128 1;
#X connect 118 0 129 1;
#X connect 119 0 116 1;
#X connect 120 0 116 2;
#X connect 121 0 116 3;
#X connect 122 0 116 4;
#X connect 123 0 116 5;
#X connect 124 0 116 0;
#X connect 125 0 116 1;
#X connect 126 0 116 2;
#X connect 127 0 116 3;
#X connect 128 0 116 4;
#X connect 129 0 116 5;
#X connect 130 0 131 0;
#X connect 131 0 132 0;
#X connect 134 0 135 0;
#X connect 135 0 136 0;
#X connect 138 0 118 0;
#X connect 139 0 54 3;
#X connect 142 0 97 0;
#X connect 145 0 144 2;
#X connect 147 0 144 1;
#X connect 148 0 151 0;
#X connect 150 0 144 0;
#X connect 151 0 147 0;
