#N canvas 0 25 1613 969 10;
#X floatatom 41 255 5 0 0 0 - - -;
#X obj 43 302 s root;
#X obj 772 52 s in;
#X obj 906 45 s out;
#X text 68 811 Interval Multipliers U 1 m2 1.0666 M2 1.125 m3 1.2 M3
1.25 P4 1.3333 TT 1.4062 P5 1.5 m6 1.6 M6 1.6666 m7 1.7777 M7 1.875
8 2;
#X obj 828 -106 loadbang;
#X obj 1553 -45 loadbang;
#X msg 1552 -16 \; pd dsp 1;
#X msg 1551 28 \; pd dsp 0;
#N canvas 60 25 1620 956 anemometer 0;
#X obj 523 298 loadbang;
#X msg 526 333 1;
#X obj 676 345 snapshot~;
#X obj 741 298 metro 50;
#X obj 743 271 tgl 15 0 empty empty empty 17 7 0 10 -262144 -1 -1 1
1;
#X floatatom 777 360 5 0 0 0 - - -;
#X obj 662 608 outlet;
#X obj 424 427 print WIND-RAW;
#X obj 1007 698 print WIND-CALIBRATED;
#X obj 676 368 * 100;
#X obj 672 179 inlet~;
#X obj 677 431 line~;
#X obj 748 523 snapshot~;
#X floatatom 849 538 5 0 0 0 - - -;
#X msg 677 403 \$1 1000;
#X connect 0 0 1 0;
#X connect 0 0 4 0;
#X connect 2 0 5 0;
#X connect 2 0 9 0;
#X connect 3 0 2 0;
#X connect 3 0 12 0;
#X connect 4 0 3 0;
#X connect 9 0 14 0;
#X connect 10 0 2 0;
#X connect 11 0 12 0;
#X connect 12 0 13 0;
#X connect 12 0 6 0;
#X connect 14 0 11 0;
#X restore 972 -44 pd anemometer;
#N canvas 731 367 450 300 photo-transistor 0;
#X obj 137 62 inlet~;
#X obj 139 115 snapshot~;
#X obj 222 27 loadbang;
#X obj 221 55 tgl 15 0 empty empty empty 17 7 0 10 -262144 -1 -1 1
1;
#X obj 222 79 metro 50;
#X obj 23 170 print PHOTO-TRANSISTOR-RAW;
#X obj 242 204 outlet;
#X obj 284 181 print PHOTO-TRANSISTOR;
#X obj 232 149 * 100;
#X connect 0 0 1 0;
#X connect 1 0 8 0;
#X connect 2 0 3 0;
#X connect 3 0 4 0;
#X connect 4 0 1 0;
#X connect 8 0 6 0;
#X restore 1345 -45 pd photo-transistor;
#N canvas 731 367 450 300 thermistor 0;
#X obj 137 62 inlet~;
#X obj 139 115 snapshot~;
#X obj 222 27 loadbang;
#X obj 221 55 tgl 15 0 empty empty empty 17 7 0 10 -262144 -1 -1 1
1;
#X obj 222 79 metro 50;
#X obj 242 204 outlet;
#X obj 284 181 print THERMISTOR;
#X obj 232 149 * 100;
#X connect 0 0 1 0;
#X connect 1 0 7 0;
#X connect 2 0 3 0;
#X connect 3 0 4 0;
#X connect 4 0 1 0;
#X connect 7 0 5 0;
#X restore 1253 -44 pd thermistor;
#N canvas 731 367 450 300 moisture 0;
#X obj 137 62 inlet~;
#X obj 139 115 snapshot~;
#X obj 222 27 loadbang;
#X obj 221 55 tgl 15 0 empty empty empty 17 7 0 10 -262144 -1 -1 1
1;
#X obj 222 79 metro 50;
#X obj 242 204 outlet;
#X obj 284 181 print MOISTURE;
#X connect 0 0 1 0;
#X connect 1 0 5 0;
#X connect 2 0 3 0;
#X connect 3 0 4 0;
#X connect 4 0 1 0;
#X restore 1114 -43 pd moisture;
#X msg 47 223 80;
#X text 83 222 root midi note;
#X msg 769 -56 0.05;
#N canvas 0 25 1610 836 breath 0;
#X obj 510 138 hsl 128 15 0 1 0 0 empty empty empty -2 -8 0 10 -262144
-1 -1 10501 1;
#X obj 495 193 - 1;
#X obj 494 224 abs;
#X obj 832 423 snapshot~;
#X floatatom 846 461 5 0 0 0 - - -;
#X obj 833 387 metro 50;
#X obj 836 342 tgl 15 0 empty empty empty 17 7 0 10 -262144 -1 -1 1
1;
#X floatatom 509 118 5 0 0 0 - - -;
#X obj 921 245 phasor~;
#X obj 991 205 * -1;
#X obj 991 245 phasor~;
#X msg 1071 205 0;
#X obj 921 285 *~ 2;
#X obj 921 314 -~ 1;
#X obj 991 285 *~ 2;
#X obj 991 314 -~ 1;
#X obj 881 365 clip~ 0 1;
#X obj 981 365 clip~ 0 1;
#X obj 931 405 +~;
#X text 844 221 breath speed;
#X obj 1099 88 inlet;
#X obj 89 96 inlet;
#X obj 499 295 outlet;
#X obj 565 290 outlet;
#X connect 0 0 1 0;
#X connect 0 0 23 0;
#X connect 1 0 2 0;
#X connect 2 0 22 0;
#X connect 3 0 4 0;
#X connect 4 0 0 0;
#X connect 5 0 3 0;
#X connect 6 0 5 0;
#X connect 7 0 8 0;
#X connect 7 0 9 0;
#X connect 8 0 12 0;
#X connect 9 0 10 0;
#X connect 10 0 14 0;
#X connect 11 0 10 1;
#X connect 11 0 8 1;
#X connect 12 0 13 0;
#X connect 13 0 16 0;
#X connect 14 0 15 0;
#X connect 15 0 17 0;
#X connect 16 0 18 0;
#X connect 17 0 18 1;
#X connect 18 0 3 0;
#X connect 20 0 11 0;
#X connect 20 0 6 0;
#X connect 21 0 7 0;
#X coords 0 -1 1 1 150 60 1 500 100;
#X restore 769 -33 pd breath;
#X obj 971 -21 s anemometer @hv_param;
#X obj 1346 -4 s photo-transistor @hv_param;
#X obj 1114 -22 s moisture @hv_param;
#X obj 1253 -24 s thermistor @hv_param;
#X floatatom 219 519 10 0 0 0 - - -;
#X obj 159 510 tgl 15 0 empty empty empty 17 7 0 10 -262144 -1 -1 1
1;
#X obj 190 598 bng 15 250 50 0 empty empty empty 17 7 0 10 -262144
-1 -1;
#X obj 162 702 bng 15 250 50 0 empty empty empty 17 7 0 10 -262144
-1 -1;
#X obj 202 701 bng 15 250 50 0 empty empty empty 17 7 0 10 -262144
-1 -1;
#X obj 238 700 bng 15 250 50 0 empty empty empty 17 7 0 10 -262144
-1 -1;
#X obj 117 732 s triggerBirds;
#X obj 157 754 s triggerCrickets;
#X obj 211 733 s triggerLoon;
#X obj 1481 333 vsl 15 128 0 1 0 0 empty empty empty 0 -9 0 10 -262144
-1 -1 6350 1;
#X floatatom 1481 466 5 0 0 0 - - -;
#X obj 1511 238 loadbang;
#X obj 1368 532 hradio 15 1 0 6 empty empty empty 0 -8 0 10 -262144
-1 -1 0;
#X floatatom 1376 561 5 0 0 0 - - -;
#X obj 1367 505 random 6;
#X obj 1163 415 bng 15 250 50 0 empty empty empty 17 7 0 10 -262144
-1 -1;
#X obj 1164 392 r triggerBirds;
#N canvas 392 25 1088 830 switchboard 0;
#X obj 71 37 inlet~;
#X obj 793 38 inlet, f 6;
#X obj 141 476 *~;
#X obj 315 480 *~;
#X obj 458 473 *~;
#X obj 620 469 *~;
#X obj 729 467 *~;
#X obj 827 465 *~;
#X obj 147 617 outlet~;
#X obj 313 628 outlet~;
#X obj 447 629 outlet~;
#X obj 614 626 outlet~;
#X obj 844 630 outlet~;
#X obj 726 625 outlet~;
#X obj 597 89 == 0;
#X msg 591 110 \$1 20;
#X obj 592 128 line~;
#X msg 648 109 \$1 20;
#X obj 649 127 line~;
#X msg 703 105 \$1 20;
#X obj 704 123 line~;
#X msg 758 107 \$1 20;
#X obj 759 125 line~;
#X msg 813 107 \$1 20;
#X obj 816 126 line~;
#X msg 874 107 \$1 20;
#X obj 875 125 line~;
#X obj 654 88 == 1;
#X obj 709 84 == 2;
#X obj 764 86 == 3;
#X obj 819 86 == 4;
#X obj 880 86 == 5;
#X connect 0 0 2 0;
#X connect 0 0 3 0;
#X connect 0 0 4 0;
#X connect 0 0 5 0;
#X connect 0 0 6 0;
#X connect 0 0 7 0;
#X connect 1 0 14 0;
#X connect 1 0 27 0;
#X connect 1 0 28 0;
#X connect 1 0 29 0;
#X connect 1 0 30 0;
#X connect 1 0 31 0;
#X connect 2 0 8 0;
#X connect 3 0 9 0;
#X connect 4 0 10 0;
#X connect 5 0 11 0;
#X connect 6 0 13 0;
#X connect 7 0 12 0;
#X connect 14 0 15 0;
#X connect 15 0 16 0;
#X connect 16 0 2 1;
#X connect 17 0 18 0;
#X connect 18 0 3 1;
#X connect 19 0 20 0;
#X connect 20 0 4 1;
#X connect 21 0 22 0;
#X connect 22 0 5 1;
#X connect 23 0 24 0;
#X connect 24 0 6 1;
#X connect 25 0 26 0;
#X connect 26 0 7 1;
#X connect 27 0 17 0;
#X connect 28 0 19 0;
#X connect 29 0 21 0;
#X connect 30 0 23 0;
#X connect 31 0 25 0;
#X restore 1201 574 pd switchboard;
#N canvas 973 149 707 664 birds 0;
#X obj 148 218 readsf~;
#X msg 178 188 1;
#X obj 246 119 bng 15 250 50 0 empty empty empty 17 7 0 10 -262144
-1 -1;
#X obj 149 70 inlet;
#X obj 143 258 outlet~;
#X msg 134 162 open bird-chirps.aif;
#X connect 0 0 4 0;
#X connect 1 0 0 0;
#X connect 2 0 5 0;
#X connect 2 0 1 0;
#X connect 3 0 2 0;
#X connect 5 0 0 0;
#X restore 1164 436 pd birds;
#X obj 1258 412 bng 15 250 50 0 empty empty empty 17 7 0 10 -262144
-1 -1;
#X obj 1260 392 r triggerCrickets;
#N canvas 973 149 707 664 crickets 0;
#X obj 148 218 readsf~;
#X msg 178 188 1;
#X obj 144 93 bng 15 250 50 0 empty empty empty 17 7 0 10 -262144 -1
-1;
#X obj 149 70 inlet;
#X obj 143 258 outlet~;
#X msg 134 162 open crickets.aif;
#X connect 0 0 4 0;
#X connect 1 0 0 0;
#X connect 2 0 5 0;
#X connect 2 0 1 0;
#X connect 3 0 2 0;
#X connect 5 0 0 0;
#X restore 1257 435 pd crickets;
#X obj 1375 416 bng 15 250 50 0 empty empty empty 17 7 0 10 -262144
-1 -1;
#X obj 1377 392 r triggerLoon;
#N canvas 973 149 707 664 loon 0;
#X obj 148 218 readsf~;
#X msg 178 188 1;
#X obj 144 93 bng 15 250 50 0 empty empty empty 17 7 0 10 -262144 -1
-1;
#X obj 149 70 inlet;
#X obj 143 258 outlet~;
#X msg 134 162 open loon-call.aif;
#X connect 0 0 4 0;
#X connect 1 0 0 0;
#X connect 2 0 5 0;
#X connect 2 0 1 0;
#X connect 3 0 2 0;
#X connect 5 0 0 0;
#X restore 1373 438 pd loon;
#X obj 1556 336 vsl 15 128 0 1 0 0 empty empty empty 0 -9 0 10 -262144
-1 -1 6350 1;
#X floatatom 1556 469 5 0 0 0 - - -;
#X msg 1554 310 0.5;
#X obj 1136 662 *~ 0.5;
#X obj 1186 662 *~ 0.5;
#X obj 1234 662 *~ 0.5;
#X obj 1281 662 *~ 0.5;
#X obj 1332 663 *~ 0.5;
#X obj 1383 664 *~ 0.5;
#X floatatom 279 651 5 0 0 0 - - -;
#X obj 155 482 loadbang;
#X obj 1015 791 dac~ 1 2 3 4 5 6;
#X obj 364 560 + 60000;
#X obj 265 583 random 120000;
#X obj 188 548 metro 180000;
#X text 31 223 Ab;
#X obj 419 -5 dac~ 9 10;
#N canvas 0 25 1082 732 pumpControl 0;
#X obj 569 48 tgl 17 0 empty empty empty 17 7 0 10 -262144 -1 -1 1
1;
#X obj 569 130 bng 17 250 50 0 empty empty empty 17 7 0 10 -262144
-1 -1;
#X obj 569 70 t f f;
#X obj 569 97 metro 1 60 permin;
#X obj 571 179 float;
#X obj 643 183 + 1;
#X floatatom 568 225 10 0 0 0 - - -;
#X obj 754 315 bng 15 250 50 0 empty empty empty 17 7 0 10 -262144
-1 -1;
#X obj 537 351 bng 15 250 50 0 empty empty empty 17 7 0 10 -262144
-1 -1;
#X obj 635 348 bng 15 250 50 0 empty empty empty 17 7 0 10 -262144
-1 -1;
#X text 516 348 on;
#X text 602 347 off;
#X obj 651 303 del 200;
#X msg 744 241 0;
#X obj 562 275 sel 1 1800 21600;
#X obj 614 15 inlet;
#X msg 524 403 1;
#X obj 522 441 sig~;
#X obj 627 437 sig~;
#X msg 629 399 0;
#X obj 576 505 outlet~;
#X connect 0 0 2 0;
#X connect 1 0 4 0;
#X connect 2 0 3 0;
#X connect 3 0 1 0;
#X connect 4 0 5 0;
#X connect 4 0 6 0;
#X connect 5 0 4 1;
#X connect 6 0 14 0;
#X connect 7 0 13 0;
#X connect 8 0 16 0;
#X connect 9 0 19 0;
#X connect 12 0 7 0;
#X connect 13 0 4 1;
#X connect 14 0 8 0;
#X connect 14 1 9 0;
#X connect 14 2 12 0;
#X connect 15 0 0 0;
#X connect 15 0 13 0;
#X connect 16 0 17 0;
#X connect 17 0 20 0;
#X connect 18 0 20 0;
#X connect 19 0 18 0;
#X restore 352 -52 pd pumpControl;
#N canvas 1801 34 1790 971 chordSequence 0;
#X obj 51 469 osc~;
#X obj 116 464 osc~;
#X obj 182 461 osc~;
#X obj 249 465 osc~;
#X obj 311 465 osc~;
#X obj 375 469 osc~;
#X obj 51 435 line;
#X obj 115 436 line;
#X obj 181 436 line;
#X obj 249 435 line;
#X obj 313 435 line;
#X obj 376 437 line;
#X obj 190 142 bng 15 250 50 0 empty empty empty 17 7 0 10 -262144
-1 -1;
#X obj 433 140 bng 15 250 50 0 empty empty empty 17 7 0 10 -262144
-1 -1;
#N canvas 1866 217 1202 439 Fmaj7 0;
#X obj 250 37 inlet;
#X obj 418 367 outlet;
#X obj 477 367 outlet;
#X obj 537 367 outlet;
#X obj 594 367 outlet;
#X obj 650 367 outlet;
#X obj 705 368 outlet;
#X obj 80 142 mtof;
#X obj 137 138 mtof;
#X obj 183 142 mtof;
#X obj 240 142 mtof;
#X obj 302 141 mtof;
#X obj 362 145 mtof;
#X msg 80 112 41;
#X msg 137 110 48;
#X msg 183 114 52;
#X msg 241 114 57;
#X msg 302 114 60;
#X msg 362 118 64;
#X connect 0 0 13 0;
#X connect 0 0 14 0;
#X connect 0 0 15 0;
#X connect 0 0 16 0;
#X connect 0 0 17 0;
#X connect 0 0 18 0;
#X connect 7 0 1 0;
#X connect 8 0 2 0;
#X connect 9 0 3 0;
#X connect 10 0 4 0;
#X connect 11 0 5 0;
#X connect 12 0 6 0;
#X connect 13 0 7 0;
#X connect 14 0 8 0;
#X connect 15 0 9 0;
#X connect 16 0 10 0;
#X connect 17 0 11 0;
#X connect 18 0 12 0;
#X restore 186 190 pd Fmaj7;
#X msg 51 405 \$1 250;
#X msg 115 406 \$1 250;
#X msg 180 406 \$1 250;
#X msg 249 405 \$1 250;
#X msg 313 405 \$1 250;
#X msg 376 407 \$1 250;
#X obj 51 519 *~;
#X obj 118 518 *~;
#X obj 181 520 *~;
#X obj 248 521 *~;
#X obj 309 524 *~;
#X obj 378 521 *~;
#X obj 478 471 osc~;
#X obj 543 466 osc~;
#X obj 609 463 osc~;
#X obj 676 467 osc~;
#X obj 739 468 osc~;
#X obj 802 471 osc~;
#X obj 478 437 line;
#X obj 542 438 line;
#X obj 608 438 line;
#X obj 676 437 line;
#X obj 740 437 line;
#X obj 803 439 line;
#X msg 478 407 \$1 250;
#X msg 542 408 \$1 250;
#X msg 607 408 \$1 250;
#X msg 676 407 \$1 250;
#X msg 740 407 \$1 250;
#X msg 803 409 \$1 250;
#X obj 478 369 * 2;
#X obj 541 372 * 2;
#X obj 606 373 * 2;
#X obj 675 376 * 2;
#X obj 739 377 * 2;
#X obj 803 374 * 2;
#X obj 476 514 *~;
#X obj 543 514 *~;
#X obj 606 516 *~;
#X obj 673 517 *~;
#X obj 735 517 *~;
#X obj 803 517 *~;
#N canvas 1866 217 1202 439 Bbmaj7 0;
#X obj 593 132 inlet;
#X obj 418 367 outlet;
#X obj 477 367 outlet;
#X obj 537 367 outlet;
#X obj 594 367 outlet;
#X obj 650 367 outlet;
#X obj 705 368 outlet;
#X obj 423 237 mtof;
#X obj 480 233 mtof;
#X obj 526 237 mtof;
#X obj 583 237 mtof;
#X obj 645 236 mtof;
#X obj 705 240 mtof;
#X msg 584 209 57;
#X msg 645 209 60;
#X msg 705 213 65;
#X msg 423 207 46;
#X msg 480 205 50;
#X msg 526 209 53;
#X connect 0 0 16 0;
#X connect 0 0 17 0;
#X connect 0 0 18 0;
#X connect 0 0 13 0;
#X connect 0 0 14 0;
#X connect 0 0 15 0;
#X connect 7 0 1 0;
#X connect 8 0 2 0;
#X connect 9 0 3 0;
#X connect 10 0 4 0;
#X connect 11 0 5 0;
#X connect 12 0 6 0;
#X connect 13 0 10 0;
#X connect 14 0 11 0;
#X connect 15 0 12 0;
#X connect 16 0 7 0;
#X connect 17 0 8 0;
#X connect 18 0 9 0;
#X restore 437 178 pd Bbmaj7;
#N canvas 2380 25 1202 439 Gmin7 0;
#X obj 593 132 inlet;
#X obj 418 367 outlet;
#X obj 477 367 outlet;
#X obj 537 367 outlet;
#X obj 594 367 outlet;
#X obj 650 367 outlet;
#X obj 705 368 outlet;
#X obj 423 237 mtof;
#X obj 480 233 mtof;
#X obj 526 237 mtof;
#X obj 583 237 mtof;
#X obj 645 236 mtof;
#X obj 705 240 mtof;
#X msg 480 205 46;
#X msg 526 209 50;
#X msg 705 213 65;
#X msg 423 207 43;
#X msg 584 209 58;
#X msg 645 209 62;
#X connect 0 0 16 0;
#X connect 0 0 13 0;
#X connect 0 0 14 0;
#X connect 0 0 17 0;
#X connect 0 0 18 0;
#X connect 0 0 15 0;
#X connect 7 0 1 0;
#X connect 8 0 2 0;
#X connect 9 0 3 0;
#X connect 10 0 4 0;
#X connect 11 0 5 0;
#X connect 12 0 6 0;
#X connect 13 0 8 0;
#X connect 14 0 9 0;
#X connect 15 0 12 0;
#X connect 16 0 7 0;
#X connect 17 0 10 0;
#X connect 18 0 11 0;
#X restore 516 177 pd Gmin7;
#X obj 522 145 bng 15 250 50 0 empty empty empty 17 7 0 10 -262144
-1 -1;
#N canvas 2177 456 1202 439 Dmin7 0;
#X obj 593 132 inlet;
#X obj 418 367 outlet;
#X obj 477 367 outlet;
#X obj 537 367 outlet;
#X obj 594 367 outlet;
#X obj 650 367 outlet;
#X obj 705 368 outlet;
#X obj 423 237 mtof;
#X obj 480 233 mtof;
#X obj 526 237 mtof;
#X obj 583 237 mtof;
#X obj 645 236 mtof;
#X obj 705 240 mtof;
#X msg 526 209 53;
#X msg 584 209 57;
#X msg 423 207 38;
#X msg 480 205 45;
#X msg 645 209 60;
#X msg 705 213 62;
#X connect 0 0 15 0;
#X connect 0 0 16 0;
#X connect 0 0 13 0;
#X connect 0 0 14 0;
#X connect 0 0 17 0;
#X connect 0 0 18 0;
#X connect 7 0 1 0;
#X connect 8 0 2 0;
#X connect 9 0 3 0;
#X connect 10 0 4 0;
#X connect 11 0 5 0;
#X connect 12 0 6 0;
#X connect 13 0 9 0;
#X connect 14 0 10 0;
#X connect 15 0 7 0;
#X connect 16 0 8 0;
#X connect 17 0 11 0;
#X connect 18 0 12 0;
#X restore 284 186 pd Dmin7;
#X obj 285 136 bng 15 250 50 0 empty empty empty 17 7 0 10 -262144
-1 -1;
#N canvas 2177 275 1202 620 Ebmaj7 0;
#X obj 593 132 inlet;
#X obj 418 367 outlet;
#X obj 477 367 outlet;
#X obj 537 367 outlet;
#X obj 594 367 outlet;
#X obj 650 367 outlet;
#X obj 705 368 outlet;
#X obj 423 237 mtof;
#X obj 480 233 mtof;
#X obj 526 237 mtof;
#X obj 583 237 mtof;
#X obj 645 236 mtof;
#X obj 705 240 mtof;
#X msg 423 207 39;
#X msg 479 205 46;
#X msg 526 209 50;
#X msg 584 209 55;
#X msg 645 209 58;
#X msg 705 213 62;
#X connect 0 0 13 0;
#X connect 0 0 14 0;
#X connect 0 0 15 0;
#X connect 0 0 16 0;
#X connect 0 0 17 0;
#X connect 0 0 18 0;
#X connect 7 0 1 0;
#X connect 8 0 2 0;
#X connect 9 0 3 0;
#X connect 10 0 4 0;
#X connect 11 0 5 0;
#X connect 12 0 6 0;
#X connect 13 0 7 0;
#X connect 14 0 8 0;
#X connect 15 0 9 0;
#X connect 16 0 10 0;
#X connect 17 0 11 0;
#X connect 18 0 12 0;
#X restore 365 182 pd Ebmaj7;
#X obj 364 137 bng 15 250 50 0 empty empty empty 17 7 0 10 -262144
-1 -1;
#N canvas 2177 275 1202 620 Abmaj7 0;
#X obj 593 132 inlet;
#X obj 418 367 outlet;
#X obj 477 367 outlet;
#X obj 537 367 outlet;
#X obj 594 367 outlet;
#X obj 650 367 outlet;
#X obj 705 368 outlet;
#X obj 423 237 mtof;
#X obj 480 233 mtof;
#X obj 526 237 mtof;
#X obj 583 237 mtof;
#X obj 645 236 mtof;
#X obj 705 240 mtof;
#X msg 480 205 51;
#X msg 705 213 67;
#X msg 526 209 56;
#X msg 584 209 60;
#X msg 645 209 63;
#X msg 423 207 44;
#X connect 0 0 18 0;
#X connect 0 0 13 0;
#X connect 0 0 15 0;
#X connect 0 0 16 0;
#X connect 0 0 17 0;
#X connect 0 0 14 0;
#X connect 7 0 1 0;
#X connect 8 0 2 0;
#X connect 9 0 3 0;
#X connect 10 0 4 0;
#X connect 11 0 5 0;
#X connect 12 0 6 0;
#X connect 13 0 8 0;
#X connect 14 0 12 0;
#X connect 15 0 9 0;
#X connect 16 0 10 0;
#X connect 17 0 11 0;
#X connect 18 0 7 0;
#X restore 660 178 pd Abmaj7;
#X obj 665 141 bng 15 250 50 0 empty empty empty 17 7 0 10 -262144
-1 -1;
#N canvas 2177 275 1202 620 Cmin7 0;
#X obj 593 132 inlet;
#X obj 418 367 outlet;
#X obj 477 367 outlet;
#X obj 537 367 outlet;
#X obj 594 367 outlet;
#X obj 650 367 outlet;
#X obj 705 368 outlet;
#X obj 423 237 mtof;
#X obj 480 233 mtof;
#X obj 526 237 mtof;
#X obj 583 237 mtof;
#X obj 645 236 mtof;
#X obj 705 240 mtof;
#X msg 423 207 48;
#X msg 480 205 51;
#X msg 526 209 55;
#X msg 584 209 58;
#X msg 645 209 63;
#X msg 705 213 67;
#X connect 0 0 13 0;
#X connect 0 0 14 0;
#X connect 0 0 15 0;
#X connect 0 0 16 0;
#X connect 0 0 17 0;
#X connect 0 0 18 0;
#X connect 7 0 1 0;
#X connect 8 0 2 0;
#X connect 9 0 3 0;
#X connect 10 0 4 0;
#X connect 11 0 5 0;
#X connect 12 0 6 0;
#X connect 13 0 7 0;
#X connect 14 0 8 0;
#X connect 15 0 9 0;
#X connect 16 0 10 0;
#X connect 17 0 11 0;
#X connect 18 0 12 0;
#X restore 586 178 pd Cmin7;
#X obj 584 142 bng 15 250 50 0 empty empty empty 17 7 0 10 -262144
-1 -1;
#X obj 762 143 bng 15 250 50 0 empty empty empty 17 7 0 10 -262144
-1 -1;
#X obj 468 542 *~ 0.7;
#X obj 534 544 *~ 0.7;
#X obj 595 545 *~ 0.7;
#X obj 662 546 *~ 0.7;
#X obj 726 548 *~ 0.7;
#X obj 800 545 *~ 0.7;
#X obj 726 804 outlet~;
#X obj 793 806 outlet~;
#X obj 866 807 outlet~;
#X obj 940 806 outlet~;
#X obj 1009 808 outlet~;
#X obj 1080 807 outlet~;
#N canvas 2177 275 1202 620 Gbmaj7 0;
#X obj 593 132 inlet;
#X obj 418 367 outlet;
#X obj 477 367 outlet;
#X obj 537 367 outlet;
#X obj 594 367 outlet;
#X obj 650 367 outlet;
#X obj 705 368 outlet;
#X obj 423 237 mtof;
#X obj 480 233 mtof;
#X obj 526 237 mtof;
#X obj 583 237 mtof;
#X obj 645 236 mtof;
#X obj 705 240 mtof;
#X msg 423 207 42;
#X msg 480 205 49;
#X msg 584 209 58;
#X msg 645 209 61;
#X msg 705 213 65;
#X msg 526 209 54;
#X connect 0 0 13 0;
#X connect 0 0 14 0;
#X connect 0 0 18 0;
#X connect 0 0 15 0;
#X connect 0 0 16 0;
#X connect 0 0 17 0;
#X connect 7 0 1 0;
#X connect 8 0 2 0;
#X connect 9 0 3 0;
#X connect 10 0 4 0;
#X connect 11 0 5 0;
#X connect 12 0 6 0;
#X connect 13 0 7 0;
#X connect 14 0 8 0;
#X connect 15 0 10 0;
#X connect 16 0 11 0;
#X connect 17 0 12 0;
#X connect 18 0 9 0;
#X restore 756 180 pd Gbmaj7;
#X obj 473 13 inlet;
#X obj 438 73 sel 0 1 2 3 4 5 6 7;
#X obj 851 247 inlet;
#X obj 895 245 inlet;
#X obj 1049 490 osc~;
#X obj 1406 296 hsl 128 15 0 6 0 0 empty empty empty -2 -8 0 10 -262144
-1 -1 12260 1;
#X floatatom 1469 315 5 0 0 0 - - -;
#X obj 1262 338 <= 1;
#X obj 1314 343 > 1;
#X obj 1347 342 <= 2;
#X obj 1328 367 &&;
#X obj 1408 370 &&;
#X obj 1395 342 > 2;
#X obj 1428 341 <= 3;
#X obj 1485 366 &&;
#X obj 1472 339 > 3;
#X obj 1504 338 <= 4;
#X obj 1556 365 &&;
#X obj 1543 338 > 4;
#X obj 1575 337 <= 5;
#X obj 1617 335 > 5;
#X obj 1261 384 line;
#X msg 1261 360 \$1 500;
#X floatatom 1261 411 5 0 0 0 - - -;
#X floatatom 1327 435 5 0 0 0 - - -;
#X floatatom 1408 434 5 0 0 0 - - -;
#X floatatom 1484 431 5 0 0 0 - - -;
#X floatatom 1555 430 5 0 0 0 - - -;
#X floatatom 1629 427 5 0 0 0 - - -;
#X obj 1327 410 line;
#X msg 1327 391 \$1 500;
#X obj 1408 410 line;
#X msg 1408 391 \$1 500;
#X obj 1486 408 line;
#X msg 1486 389 \$1 500;
#X obj 1555 406 line;
#X msg 1555 387 \$1 500;
#X obj 1618 392 line;
#X msg 1618 373 \$1 500;
#X obj 964 609 *~ 0;
#X obj 998 614 *~ 0;
#X obj 1035 617 *~ 0;
#X obj 1077 609 *~ 0;
#X obj 1116 610 *~ 0;
#X obj 1155 609 *~ 0;
#X obj 1255 116 *~ 2;
#X obj 1255 138 -~ 1;
#X obj 1254 168 clip~ 0 1;
#X obj 1337 115 *~ 2;
#X obj 1337 137 -~ 1;
#X obj 1336 167 clip~ 0 1;
#X obj 1255 91 phasor~;
#X obj 1338 90 phasor~;
#X obj 1338 58 * -1;
#X msg 1411 64 0;
#X obj 1301 207 +~;
#X obj 1303 16 loadbang;
#X obj 1447 189 snapshot~;
#X obj 1481 118 metro 50;
#X obj 1487 84 tgl 15 0 empty empty empty 17 7 0 10 -262144 -1 -1 1
1;
#X obj 1438 231 * 6;
#X msg 1260 52 0.01;
#X msg 983 377 67;
#X obj 979 404 mtof;
#X obj 1020 406 mtof;
#X msg 1024 379 65;
#X obj 1061 404 mtof;
#X msg 1065 377 69;
#X obj 1097 404 mtof;
#X msg 1101 377 70;
#X obj 1135 404 mtof;
#X msg 1139 377 68;
#X obj 1049 521 *~;
#X obj 1146 320 inlet;
#X msg 1051 435 \$1 250;
#X obj 1050 461 line;
#X connect 0 0 21 0;
#X connect 1 0 22 0;
#X connect 2 0 23 0;
#X connect 3 0 24 0;
#X connect 4 0 25 0;
#X connect 5 0 26 0;
#X connect 6 0 0 0;
#X connect 7 0 1 0;
#X connect 8 0 2 0;
#X connect 9 0 3 0;
#X connect 10 0 4 0;
#X connect 11 0 5 0;
#X connect 12 0 14 0;
#X connect 12 0 144 0;
#X connect 13 0 57 0;
#X connect 13 0 149 0;
#X connect 14 0 15 0;
#X connect 14 0 45 0;
#X connect 14 1 16 0;
#X connect 14 1 46 0;
#X connect 14 2 17 0;
#X connect 14 2 47 0;
#X connect 14 3 18 0;
#X connect 14 3 48 0;
#X connect 14 4 19 0;
#X connect 14 4 49 0;
#X connect 14 5 20 0;
#X connect 14 5 50 0;
#X connect 15 0 6 0;
#X connect 16 0 7 0;
#X connect 17 0 8 0;
#X connect 18 0 9 0;
#X connect 19 0 10 0;
#X connect 20 0 11 0;
#X connect 21 0 75 0;
#X connect 22 0 76 0;
#X connect 23 0 77 0;
#X connect 24 0 78 0;
#X connect 25 0 79 0;
#X connect 26 0 80 0;
#X connect 27 0 51 0;
#X connect 28 0 52 0;
#X connect 29 0 53 0;
#X connect 30 0 54 0;
#X connect 31 0 55 0;
#X connect 32 0 56 0;
#X connect 33 0 27 0;
#X connect 34 0 28 0;
#X connect 35 0 29 0;
#X connect 36 0 30 0;
#X connect 37 0 31 0;
#X connect 38 0 32 0;
#X connect 39 0 33 0;
#X connect 40 0 34 0;
#X connect 41 0 35 0;
#X connect 42 0 36 0;
#X connect 43 0 37 0;
#X connect 44 0 38 0;
#X connect 45 0 39 0;
#X connect 46 0 40 0;
#X connect 47 0 41 0;
#X connect 48 0 42 0;
#X connect 49 0 43 0;
#X connect 50 0 44 0;
#X connect 51 0 69 0;
#X connect 52 0 70 0;
#X connect 53 0 71 0;
#X connect 54 0 72 0;
#X connect 55 0 73 0;
#X connect 56 0 74 0;
#X connect 57 0 15 0;
#X connect 57 0 45 0;
#X connect 57 1 16 0;
#X connect 57 1 46 0;
#X connect 57 2 17 0;
#X connect 57 2 47 0;
#X connect 57 3 18 0;
#X connect 57 3 48 0;
#X connect 57 4 19 0;
#X connect 57 4 49 0;
#X connect 57 5 20 0;
#X connect 57 5 50 0;
#X connect 58 0 15 0;
#X connect 58 0 45 0;
#X connect 58 1 16 0;
#X connect 58 1 46 0;
#X connect 58 2 17 0;
#X connect 58 2 47 0;
#X connect 58 3 18 0;
#X connect 58 3 48 0;
#X connect 58 4 19 0;
#X connect 58 4 49 0;
#X connect 58 5 20 0;
#X connect 58 5 50 0;
#X connect 59 0 58 0;
#X connect 59 0 149 0;
#X connect 60 0 15 0;
#X connect 60 0 45 0;
#X connect 60 1 16 0;
#X connect 60 1 46 0;
#X connect 60 2 17 0;
#X connect 60 2 47 0;
#X connect 60 3 18 0;
#X connect 60 3 48 0;
#X connect 60 4 19 0;
#X connect 60 4 49 0;
#X connect 60 5 20 0;
#X connect 60 5 50 0;
#X connect 61 0 60 0;
#X connect 61 0 147 0;
#X connect 62 0 15 0;
#X connect 62 0 45 0;
#X connect 62 1 16 0;
#X connect 62 1 46 0;
#X connect 62 2 17 0;
#X connect 62 2 47 0;
#X connect 62 3 18 0;
#X connect 62 3 48 0;
#X connect 62 4 19 0;
#X connect 62 4 49 0;
#X connect 62 5 20 0;
#X connect 62 5 50 0;
#X connect 63 0 62 0;
#X connect 63 0 147 0;
#X connect 64 0 15 0;
#X connect 64 0 45 0;
#X connect 64 1 16 0;
#X connect 64 1 46 0;
#X connect 64 2 17 0;
#X connect 64 2 47 0;
#X connect 64 3 18 0;
#X connect 64 3 48 0;
#X connect 64 4 19 0;
#X connect 64 4 49 0;
#X connect 64 5 20 0;
#X connect 64 5 50 0;
#X connect 65 0 64 0;
#X connect 65 0 151 0;
#X connect 66 0 15 0;
#X connect 66 0 45 0;
#X connect 66 1 16 0;
#X connect 66 1 46 0;
#X connect 66 2 17 0;
#X connect 66 2 47 0;
#X connect 66 3 18 0;
#X connect 66 3 48 0;
#X connect 66 4 19 0;
#X connect 66 4 49 0;
#X connect 66 5 20 0;
#X connect 66 5 50 0;
#X connect 67 0 66 0;
#X connect 67 0 151 0;
#X connect 68 0 81 0;
#X connect 68 0 153 0;
#X connect 69 0 75 0;
#X connect 70 0 76 0;
#X connect 71 0 77 0;
#X connect 72 0 78 0;
#X connect 73 0 79 0;
#X connect 74 0 80 0;
#X connect 81 0 15 0;
#X connect 81 0 45 0;
#X connect 81 1 16 0;
#X connect 81 1 46 0;
#X connect 81 2 17 0;
#X connect 81 2 47 0;
#X connect 81 3 18 0;
#X connect 81 3 48 0;
#X connect 81 4 19 0;
#X connect 81 4 49 0;
#X connect 81 5 20 0;
#X connect 81 5 50 0;
#X connect 82 0 83 0;
#X connect 83 0 12 0;
#X connect 83 1 61 0;
#X connect 83 2 63 0;
#X connect 83 3 13 0;
#X connect 83 4 59 0;
#X connect 83 5 67 0;
#X connect 83 6 65 0;
#X connect 83 7 68 0;
#X connect 84 0 21 1;
#X connect 84 0 22 1;
#X connect 84 0 23 1;
#X connect 84 0 24 1;
#X connect 84 0 25 1;
#X connect 84 0 26 1;
#X connect 85 0 51 1;
#X connect 85 0 52 1;
#X connect 85 0 53 1;
#X connect 85 0 54 1;
#X connect 85 0 55 1;
#X connect 85 0 56 1;
#X connect 86 0 154 0;
#X connect 87 0 88 0;
#X connect 88 0 89 0;
#X connect 88 0 90 0;
#X connect 88 0 91 0;
#X connect 88 0 94 0;
#X connect 88 0 95 0;
#X connect 88 0 97 0;
#X connect 88 0 98 0;
#X connect 88 0 100 0;
#X connect 88 0 101 0;
#X connect 88 0 102 0;
#X connect 89 0 104 0;
#X connect 90 0 92 0;
#X connect 91 0 92 1;
#X connect 92 0 112 0;
#X connect 93 0 114 0;
#X connect 94 0 93 0;
#X connect 95 0 93 1;
#X connect 96 0 116 0;
#X connect 97 0 96 0;
#X connect 98 0 96 1;
#X connect 99 0 118 0;
#X connect 100 0 99 0;
#X connect 101 0 99 1;
#X connect 102 0 120 0;
#X connect 103 0 105 0;
#X connect 104 0 103 0;
#X connect 105 0 121 1;
#X connect 106 0 122 1;
#X connect 107 0 123 1;
#X connect 108 0 124 1;
#X connect 109 0 125 1;
#X connect 110 0 126 1;
#X connect 111 0 106 0;
#X connect 112 0 111 0;
#X connect 113 0 107 0;
#X connect 114 0 113 0;
#X connect 115 0 108 0;
#X connect 116 0 115 0;
#X connect 117 0 109 0;
#X connect 118 0 117 0;
#X connect 119 0 110 0;
#X connect 120 0 119 0;
#X connect 121 0 75 0;
#X connect 122 0 76 0;
#X connect 123 0 77 0;
#X connect 124 0 78 0;
#X connect 125 0 79 0;
#X connect 126 0 80 0;
#X connect 127 0 128 0;
#X connect 128 0 129 0;
#X connect 129 0 137 0;
#X connect 130 0 131 0;
#X connect 131 0 132 0;
#X connect 132 0 137 1;
#X connect 133 0 127 0;
#X connect 134 0 130 0;
#X connect 135 0 134 0;
#X connect 136 0 134 1;
#X connect 136 0 133 1;
#X connect 137 0 139 0;
#X connect 138 0 143 0;
#X connect 138 0 136 0;
#X connect 138 0 141 0;
#X connect 139 0 142 0;
#X connect 140 0 139 0;
#X connect 141 0 140 0;
#X connect 142 0 87 0;
#X connect 143 0 135 0;
#X connect 143 0 133 0;
#X connect 144 0 145 0;
#X connect 145 0 156 0;
#X connect 146 0 156 0;
#X connect 147 0 146 0;
#X connect 148 0 156 0;
#X connect 149 0 148 0;
#X connect 150 0 156 0;
#X connect 151 0 150 0;
#X connect 152 0 156 0;
#X connect 153 0 152 0;
#X connect 154 0 121 0;
#X connect 154 0 122 0;
#X connect 154 0 123 0;
#X connect 154 0 124 0;
#X connect 154 0 125 0;
#X connect 154 0 126 0;
#X connect 155 0 154 1;
#X connect 156 0 157 0;
#X connect 157 0 86 0;
#X restore 917 605 pd chordSequence;
#X obj 956 569 r in;
#X obj 989 569 r out;
#N canvas 731 367 357 300 water-level 0;
#X obj 137 62 inlet~;
#X obj 139 115 snapshot~;
#X obj 222 27 loadbang;
#X obj 221 55 tgl 15 0 empty empty empty 17 7 0 10 -262144 -1 -1 1
1;
#X obj 222 79 metro 50;
#X obj 139 148 outlet;
#X connect 0 0 1 0;
#X connect 1 0 5 0;
#X connect 2 0 3 0;
#X connect 3 0 4 0;
#X connect 4 0 1 0;
#X restore 1185 1 pd water-level;
#X obj 1185 23 s water-level @hv_param;
#X obj 1044 -77 adc~ 3 4 5 6 7 -----------------------------------------------------------
;
#X obj 901 545 float;
#X obj 945 545 + 1;
#X obj 917 569 sel 7;
#X msg 930 514 0;
#X obj 930 491 loadbang;
#X obj 268 120 r root;
#X obj 392 122 r root;
#X obj 171 181 *~;
#X obj 78 138 r in;
#X obj 199 180 *~;
#X obj 228 181 *~;
#X obj 256 182 *~;
#X obj 282 184 *~;
#X obj 308 185 *~;
#X obj 377 182 *~;
#X obj 405 181 *~;
#X obj 434 182 *~;
#X obj 462 183 *~;
#X obj 488 185 *~;
#X obj 514 186 *~;
#X obj 559 155 r out;
#X obj 212 302 *~ 0.2;
#X obj 262 302 *~ 0.2;
#X obj 310 302 *~ 0.2;
#X obj 357 302 *~ 0.2;
#X obj 408 303 *~ 0.2;
#X obj 460 304 *~ 0.2;
#N canvas 637 292 542 334 AbMaj_Low 0;
#X floatatom 86 132 5 0 0 0 - - -;
#X floatatom 156 133 5 0 0 0 - - -;
#X floatatom 220 132 5 0 0 0 - - -;
#X floatatom 286 132 5 0 0 0 - - -;
#X obj 85 72 * 1;
#X obj 88 177 osc~;
#X obj 152 181 osc~;
#X obj 220 176 osc~;
#X obj 284 179 osc~;
#X obj 155 72 * 1.5;
#X floatatom 343 132 5 0 0 0 - - -;
#X obj 341 179 osc~;
#X floatatom 396 131 5 0 0 0 - - -;
#X obj 394 178 osc~;
#X obj 219 72 * 2.25;
#X obj 295 72 * 3;
#X obj 352 72 * 3.75;
#X obj 405 71 * 5;
#X obj 394 211 *~ 0.5;
#X obj 59 225 outlet~;
#X obj 132 224 outlet~;
#X obj 201 224 outlet~;
#X obj 266 224 outlet~;
#X obj 325 249 outlet~;
#X obj 388 250 outlet~;
#X obj 205 12 inlet;
#X connect 0 0 5 0;
#X connect 1 0 6 0;
#X connect 2 0 7 0;
#X connect 3 0 8 0;
#X connect 4 0 0 0;
#X connect 5 0 19 0;
#X connect 6 0 20 0;
#X connect 7 0 21 0;
#X connect 8 0 22 0;
#X connect 9 0 1 0;
#X connect 10 0 11 0;
#X connect 11 0 23 0;
#X connect 12 0 13 0;
#X connect 13 0 18 0;
#X connect 14 0 2 0;
#X connect 15 0 3 0;
#X connect 16 0 10 0;
#X connect 17 0 12 0;
#X connect 18 0 24 0;
#X connect 25 0 4 0;
#X connect 25 0 9 0;
#X connect 25 0 14 0;
#X connect 25 0 15 0;
#X connect 25 0 16 0;
#X connect 25 0 17 0;
#X restore 208 144 pd AbMaj_Low;
#N canvas 566 350 607 357 AbMaj_High 0;
#X floatatom 98 142 5 0 0 0 - - -;
#X floatatom 166 142 5 0 0 0 - - -;
#X floatatom 238 142 5 0 0 0 - - -;
#X floatatom 298 142 5 0 0 0 - - -;
#X obj 91 188 osc~;
#X obj 155 192 osc~;
#X obj 229 187 osc~;
#X obj 296 186 osc~;
#X obj 298 113 * 3.75;
#X obj 266 220 *~ 0.5;
#X floatatom 368 145 5 0 0 0 - - -;
#X obj 366 189 osc~;
#X obj 368 116 * 4.5;
#X floatatom 436 148 5 0 0 0 - - -;
#X obj 434 192 osc~;
#X obj 436 119 * 5;
#X obj 404 226 *~ 0.3;
#X obj 336 223 *~ 0.4;
#X obj 279 18 inlet;
#X obj 53 221 outlet~;
#X obj 129 232 outlet~;
#X obj 196 229 outlet~;
#X obj 255 259 outlet~;
#X obj 327 261 outlet~;
#X obj 396 260 outlet~;
#X obj 95 78 * 2;
#X obj 163 78 * 2.5;
#X obj 237 106 * 3;
#X connect 0 0 4 0;
#X connect 1 0 5 0;
#X connect 2 0 6 0;
#X connect 3 0 7 0;
#X connect 4 0 19 0;
#X connect 5 0 20 0;
#X connect 6 0 21 0;
#X connect 7 0 9 0;
#X connect 8 0 3 0;
#X connect 9 0 22 0;
#X connect 10 0 11 0;
#X connect 11 0 17 0;
#X connect 12 0 10 0;
#X connect 13 0 14 0;
#X connect 14 0 16 0;
#X connect 15 0 13 0;
#X connect 16 0 24 0;
#X connect 17 0 23 0;
#X connect 18 0 8 0;
#X connect 18 0 12 0;
#X connect 18 0 15 0;
#X connect 18 0 25 0;
#X connect 18 0 26 0;
#X connect 18 0 27 0;
#X connect 25 0 0 0;
#X connect 26 0 1 0;
#X connect 27 0 2 0;
#X restore 395 148 pd AbMaj_High;
#X obj 1243 794 dac~ 27 28 29 30;
#X msg 1479 307 0.5;
#X obj 833 661 *~ 0.5;
#X obj 878 661 *~ 0.5;
#X obj 925 661 *~ 0.5;
#X obj 972 661 *~ 0.5;
#X obj 1019 661 *~ 0.5;
#X obj 1064 661 *~ 0.5;
#X text 1401 291 chord volume;
#X text 1551 290 sample volume;
#X text 223 467 trigger random sample out of random speaker every 1
to 3 mins;
#X text 50 -51 should output 1 for 30 minutes then 0 for 6 hours;
#X text 78 96 unused code. could be useful if chord sequencer doesnt
work for some reason;
#X text 676 427 count from 0 to 7 then reset to trigger each chord
in 8 chord sequence;
#X text 674 467 sensor can send bang to the float object each time
a threshold is reached;
#X obj 1058 415 bng 15 250 50 0 empty empty empty 17 7 0 10 -262144
-1 -1;
#N canvas 888 375 707 664 birds2 0;
#X obj 148 218 readsf~;
#X msg 178 188 1;
#X obj 246 119 bng 15 250 50 0 empty empty empty 17 7 0 10 -262144
-1 -1;
#X obj 149 70 inlet;
#X obj 143 258 outlet~;
#X msg 134 161 open bird-chirps-2.aif;
#X connect 0 0 4 0;
#X connect 1 0 0 0;
#X connect 2 0 5 0;
#X connect 2 0 1 0;
#X connect 3 0 2 0;
#X connect 5 0 0 0;
#X restore 1059 438 pd birds2;
#X obj 1059 394 r triggerBirds2;
#X obj 264 699 bng 15 250 50 0 empty empty empty 17 7 0 10 -262144
-1 -1;
#X obj 270 755 s triggerBirds2;
#X obj 1090 342 bng 15 250 50 0 empty empty empty 17 7 0 10 -262144
-1 -1;
#X obj 1092 318 r triggerLoon2;
#N canvas 947 430 707 664 loon2 0;
#X obj 148 218 readsf~;
#X msg 178 188 1;
#X obj 144 93 bng 15 250 50 0 empty empty empty 17 7 0 10 -262144 -1
-1;
#X obj 149 70 inlet;
#X obj 143 258 outlet~;
#X msg 134 162 open loon-call-2.aif;
#X connect 0 0 4 0;
#X connect 1 0 0 0;
#X connect 2 0 5 0;
#X connect 2 0 1 0;
#X connect 3 0 2 0;
#X connect 5 0 0 0;
#X restore 1088 364 pd loon2;
#X obj 297 701 bng 15 250 50 0 empty empty empty 17 7 0 10 -262144
-1 -1;
#X obj 299 733 s triggerLoon2;
#X obj 1206 341 bng 15 250 50 0 empty empty empty 17 7 0 10 -262144
-1 -1;
#X obj 1208 318 r triggerLoon3;
#N canvas 947 358 707 664 loon3 0;
#X obj 148 218 readsf~;
#X msg 178 188 1;
#X obj 144 93 bng 15 250 50 0 empty empty empty 17 7 0 10 -262144 -1
-1;
#X obj 149 70 inlet;
#X obj 143 258 outlet~;
#X msg 134 162 open loon-call-3.aif;
#X connect 0 0 4 0;
#X connect 1 0 0 0;
#X connect 2 0 5 0;
#X connect 2 0 1 0;
#X connect 3 0 2 0;
#X connect 5 0 0 0;
#X restore 1204 363 pd loon3;
#X obj 190 629 random 6;
#X obj 201 667 sel 0 1 2 3 4 5;
#X obj 331 700 bng 15 250 50 0 empty empty empty 17 7 0 10 -262144
-1 -1;
#X obj 371 756 s triggerLoon3;
#X obj 880 509 bng 15 250 50 0 empty empty empty 17 7 0 10 -262144
-1 -1;
#X obj 80 214;
#X obj 977 3 - 10;
#X obj 968 129 s wind;
#X obj 1038 571 r wind;
#X obj 978 27 / 10;
#X obj 971 104 clip 0 1;
#N canvas 0 25 1249 686 breathingMossControl 0;
#X obj 1243 154;
#X obj 345 65 inlet;
#X obj 345 103 phasor~;
#X obj 321 130 expr~ $v1 > 0.5;
#X obj 471 31 loadbang;
#X msg 471 65 0;
#X obj 342 159 outlet~;
#X connect 1 0 2 0;
#X connect 2 0 3 0;
#X connect 3 0 6 0;
#X connect 4 0 5 0;
#X connect 5 0 2 1;
#X restore 516 -38 pd breathingMossControl;
#X msg 558 -58 0.1;
#X text 507 -14 output 0 and 1 at regular intervals;
#X obj 1104 12 / 70;
#X obj 1064 105 clip 0 1;
#X obj 1183 50 - 48;
#X obj 1183 70 / 19;
#X obj 1167 104 clip 0 1;
#X obj 1256 49 - 35;
#X obj 1256 70 / 10;
#X obj 1254 104 clip 0 1;
#X obj 1345 47 / 80;
#X obj 1340 103 clip 0 1;
#X obj 982 546 del 100;
#X floatatom 758 293 10 0 0 0 - - -;
#X obj 698 284 tgl 15 0 empty empty empty 17 7 0 10 -262144 -1 -1 1
1;
#X obj 729 372 bng 15 250 50 0 empty empty empty 17 7 0 10 -262144
-1 -1;
#X obj 694 256 loadbang;
#X obj 903 334 + 60000;
#X obj 804 357 random 120000;
#X obj 727 322 metro 180000;
#X connect 0 0 1 0;
#X connect 5 0 15 0;
#X connect 5 0 16 1;
#X connect 5 0 63 0;
#X connect 5 0 139 0;
#X connect 6 0 7 0;
#X connect 9 0 17 0;
#X connect 9 0 133 0;
#X connect 10 0 18 0;
#X connect 10 0 149 0;
#X connect 11 0 20 0;
#X connect 11 0 146 0;
#X connect 12 0 19 0;
#X connect 12 0 141 0;
#X connect 13 0 0 0;
#X connect 15 0 16 0;
#X connect 16 0 2 0;
#X connect 16 1 3 0;
#X connect 21 0 60 1;
#X connect 22 0 60 0;
#X connect 23 0 127 0;
#X connect 24 0 27 0;
#X connect 25 0 28 0;
#X connect 26 0 29 0;
#X connect 30 0 31 0;
#X connect 31 0 101 1;
#X connect 31 0 102 1;
#X connect 31 0 103 1;
#X connect 31 0 104 1;
#X connect 31 0 105 1;
#X connect 31 0 106 1;
#X connect 32 0 100 0;
#X connect 32 0 48 0;
#X connect 33 0 34 0;
#X connect 34 0 38 1;
#X connect 35 0 33 0;
#X connect 36 0 35 0;
#X connect 36 0 39 0;
#X connect 37 0 36 0;
#X connect 38 0 49 0;
#X connect 38 1 50 0;
#X connect 38 2 51 0;
#X connect 38 3 52 0;
#X connect 38 4 53 0;
#X connect 38 5 54 0;
#X connect 39 0 38 0;
#X connect 40 0 35 0;
#X connect 40 0 42 0;
#X connect 41 0 40 0;
#X connect 42 0 38 0;
#X connect 43 0 45 0;
#X connect 43 0 35 0;
#X connect 44 0 43 0;
#X connect 45 0 38 0;
#X connect 46 0 47 0;
#X connect 47 0 49 1;
#X connect 47 0 50 1;
#X connect 47 0 51 1;
#X connect 47 0 52 1;
#X connect 47 0 53 1;
#X connect 47 0 54 1;
#X connect 48 0 46 0;
#X connect 49 0 57 0;
#X connect 50 0 57 1;
#X connect 51 0 57 2;
#X connect 52 0 57 3;
#X connect 53 0 57 4;
#X connect 54 0 57 5;
#X connect 56 0 22 0;
#X connect 58 0 21 0;
#X connect 59 0 58 0;
#X connect 60 0 23 0;
#X connect 60 0 59 0;
#X connect 63 0 62 0;
#X connect 64 0 101 0;
#X connect 64 1 102 0;
#X connect 64 2 103 0;
#X connect 64 3 104 0;
#X connect 64 4 105 0;
#X connect 64 5 106 0;
#X connect 65 0 64 1;
#X connect 66 0 64 2;
#X connect 67 0 68 0;
#X connect 67 0 143 0;
#X connect 69 0 9 0;
#X connect 69 1 12 0;
#X connect 69 2 67 0;
#X connect 69 3 11 0;
#X connect 69 4 10 0;
#X connect 70 0 71 0;
#X connect 70 0 72 0;
#X connect 70 0 64 0;
#X connect 71 0 70 1;
#X connect 72 0 151 0;
#X connect 73 0 70 1;
#X connect 74 0 73 0;
#X connect 74 0 131 0;
#X connect 75 0 97 0;
#X connect 76 0 98 0;
#X connect 77 0 91 0;
#X connect 78 0 77 1;
#X connect 78 0 79 1;
#X connect 78 0 80 1;
#X connect 78 0 81 1;
#X connect 78 0 82 1;
#X connect 78 0 83 1;
#X connect 79 0 92 0;
#X connect 80 0 93 0;
#X connect 81 0 94 0;
#X connect 82 0 95 0;
#X connect 83 0 96 0;
#X connect 84 0 96 0;
#X connect 85 0 91 0;
#X connect 86 0 92 0;
#X connect 87 0 93 0;
#X connect 88 0 94 0;
#X connect 89 0 95 0;
#X connect 90 0 84 1;
#X connect 90 0 85 1;
#X connect 90 0 86 1;
#X connect 90 0 87 1;
#X connect 90 0 88 1;
#X connect 90 0 89 1;
#X connect 97 0 77 0;
#X connect 97 1 79 0;
#X connect 97 2 80 0;
#X connect 97 3 81 0;
#X connect 97 4 82 0;
#X connect 97 5 83 0;
#X connect 98 0 84 0;
#X connect 98 1 85 0;
#X connect 98 2 86 0;
#X connect 98 3 87 0;
#X connect 98 4 88 0;
#X connect 98 5 89 0;
#X connect 100 0 30 0;
#X connect 101 0 57 0;
#X connect 102 0 57 1;
#X connect 103 0 57 2;
#X connect 104 0 57 3;
#X connect 105 0 57 4;
#X connect 106 0 57 5;
#X connect 114 0 115 0;
#X connect 114 0 35 0;
#X connect 115 0 38 0;
#X connect 116 0 114 0;
#X connect 117 0 118 0;
#X connect 119 0 121 0;
#X connect 119 0 35 0;
#X connect 120 0 119 0;
#X connect 121 0 38 0;
#X connect 122 0 123 0;
#X connect 124 0 126 0;
#X connect 124 0 35 0;
#X connect 125 0 124 0;
#X connect 126 0 38 0;
#X connect 127 0 55 0;
#X connect 127 0 128 0;
#X connect 128 0 24 0;
#X connect 128 1 25 0;
#X connect 128 2 26 0;
#X connect 128 3 117 0;
#X connect 128 4 122 0;
#X connect 128 5 129 0;
#X connect 129 0 130 0;
#X connect 131 0 70 0;
#X connect 133 0 136 0;
#X connect 135 0 64 3;
#X connect 136 0 137 0;
#X connect 137 0 134 0;
#X connect 138 0 62 1;
#X connect 139 0 138 0;
#X connect 141 0 142 0;
#X connect 143 0 144 0;
#X connect 144 0 145 0;
#X connect 146 0 147 0;
#X connect 147 0 148 0;
#X connect 149 0 150 0;
#X connect 151 0 73 0;
#X connect 152 0 158 1;
#X connect 153 0 158 0;
#X connect 154 0 131 0;
#X connect 155 0 153 0;
#X connect 156 0 152 0;
#X connect 157 0 156 0;
#X connect 158 0 154 0;
#X connect 158 0 157 0;
