#N canvas -8 -8 1536 781 10;
#X obj 868 465 r root;
#X obj 992 467 r root;
#X floatatom 592 -14 5 0 0 0 - - -;
#X obj 594 33 s root;
#X obj 772 52 s in;
#X obj 906 45 s out;
#X text 68 811 Interval Multipliers U 1 m2 1.0666 M2 1.125 m3 1.2 M3
1.25 P4 1.3333 TT 1.4062 P5 1.5 m6 1.6 M6 1.6666 m7 1.7777 M7 1.875
8 2;
#X obj 828 -106 loadbang;
#X obj 1527 -73 loadbang;
#X msg 1526 -44 \; pd dsp 1;
#X msg 1525 0 \; pd dsp 0;
#N canvas 373 269 542 334 minorLow 0;
#X floatatom 86 132 5 0 0 0 - - -;
#X floatatom 156 133 5 0 0 0 - - -;
#X floatatom 220 132 5 0 0 0 - - -;
#X floatatom 286 132 5 0 0 0 - - -;
#X obj 85 72 * 1;
#X obj 88 177 osc~;
#X obj 152 181 osc~;
#X obj 220 176 osc~;
#X obj 284 179 osc~;
#X obj 155 72 * 1.5;
#X floatatom 343 132 5 0 0 0 - - -;
#X obj 341 179 osc~;
#X floatatom 396 131 5 0 0 0 - - -;
#X obj 394 178 osc~;
#X obj 219 72 * 2.25;
#X obj 295 72 * 3;
#X obj 394 211 *~ 0.5;
#X obj 59 225 outlet~;
#X obj 132 224 outlet~;
#X obj 201 224 outlet~;
#X obj 266 224 outlet~;
#X obj 325 249 outlet~;
#X obj 388 250 outlet~;
#X obj 205 12 inlet;
#X obj 342 74 * 3.54;
#X obj 405 71 * 4.8;
#X connect 0 0 5 0;
#X connect 1 0 6 0;
#X connect 2 0 7 0;
#X connect 3 0 8 0;
#X connect 4 0 0 0;
#X connect 5 0 17 0;
#X connect 6 0 18 0;
#X connect 7 0 19 0;
#X connect 8 0 20 0;
#X connect 9 0 1 0;
#X connect 10 0 11 0;
#X connect 11 0 21 0;
#X connect 12 0 13 0;
#X connect 13 0 16 0;
#X connect 14 0 2 0;
#X connect 15 0 3 0;
#X connect 16 0 22 0;
#X connect 23 0 4 0;
#X connect 23 0 9 0;
#X connect 23 0 14 0;
#X connect 23 0 15 0;
#X connect 23 0 24 0;
#X connect 23 0 25 0;
#X connect 24 0 10 0;
#X connect 25 0 12 0;
#X restore 1520 87 pd minorLow;
#N canvas 566 350 607 357 minorHigh 0;
#X floatatom 98 142 5 0 0 0 - - -;
#X floatatom 166 142 5 0 0 0 - - -;
#X floatatom 238 142 5 0 0 0 - - -;
#X floatatom 298 142 5 0 0 0 - - -;
#X obj 94 78 * 1.5;
#X obj 91 188 osc~;
#X obj 155 192 osc~;
#X obj 229 187 osc~;
#X obj 296 186 osc~;
#X obj 163 78 * 2;
#X obj 266 220 *~ 0.5;
#X floatatom 368 145 5 0 0 0 - - -;
#X obj 366 189 osc~;
#X obj 368 116 * 4.5;
#X floatatom 436 148 5 0 0 0 - - -;
#X obj 434 192 osc~;
#X obj 404 226 *~ 0.3;
#X obj 336 223 *~ 0.4;
#X obj 279 18 inlet;
#X obj 53 221 outlet~;
#X obj 129 232 outlet~;
#X obj 196 229 outlet~;
#X obj 255 259 outlet~;
#X obj 327 261 outlet~;
#X obj 396 260 outlet~;
#X obj 237 106 * 2.4;
#X obj 298 113 * 3.54;
#X obj 436 119 * 4.8;
#X connect 0 0 5 0;
#X connect 1 0 6 0;
#X connect 2 0 7 0;
#X connect 3 0 8 0;
#X connect 4 0 0 0;
#X connect 5 0 19 0;
#X connect 6 0 20 0;
#X connect 7 0 21 0;
#X connect 8 0 10 0;
#X connect 9 0 1 0;
#X connect 10 0 22 0;
#X connect 11 0 12 0;
#X connect 12 0 17 0;
#X connect 13 0 11 0;
#X connect 14 0 15 0;
#X connect 15 0 16 0;
#X connect 16 0 24 0;
#X connect 17 0 23 0;
#X connect 18 0 4 0;
#X connect 18 0 9 0;
#X connect 18 0 13 0;
#X connect 18 0 25 0;
#X connect 18 0 26 0;
#X connect 18 0 27 0;
#X connect 25 0 2 0;
#X connect 26 0 3 0;
#X connect 27 0 14 0;
#X restore 1538 177 pd minorHigh;
#X obj 268 -15 hsl 128 15 0 1 0 0 empty empty empty -2 -8 0 10 -262144
-1 -1 0 1;
#X obj 268 9 - 1;
#X obj 268 38 abs;
#X floatatom 318 12 5 0 0 0 - - -;
#X floatatom 270 75 5 0 0 0 - - -;
#X obj 268 -92 tgl 15 0 empty empty empty 17 7 0 10 -262144 -1 -1 0
1;
#X obj 266 -42 line;
#X msg 268 -67 \$1 1000;
#N canvas 43 25 1637 997 audioFile 0;
#X obj 535 125 openpanel;
#X obj 284 111 bng 15 250 50 0 empty empty empty 17 7 0 10 -262144
-1 -1;
#X msg 534 153 read -resize \$1 table-1;
#X obj 534 179 soundfiler;
#X msg 388 189 1;
#X obj 398 240 *~;
#X obj 531 243 expr 44100/$f1;
#N canvas 0 22 450 278 (subpatch) 0;
#X array table-1 1.43986e+007 float 0;
#X coords 0 1 1.43986e+007 -1 200 140 1;
#X restore 108 147 graph;
#X obj 398 273 phasor~;
#X obj 415 316 *~;
#X obj 414 364 tabread4~ table-1;
#X obj 414 405 *~ 0.5;
#X obj 322 113 vsl 15 128 0 2 0 0 empty empty empty 0 -9 0 10 -262144
-1 -1 0 1;
#X floatatom 312 253 5 0 0 0 - - -;
#X msg 436 190 0;
#X obj 413 440 outlet~;
#X obj 111 147 hsl 195 140 0 0 0 0 empty playhead empty -2 -8 0 10
-262144 -1 -1 0 1;
#X floatatom 650 197 10 0 0 0 - - -;
#X obj 624 417 s playhead;
#X msg 329 37 range 0 \$1;
#X obj 585 351 snapshot~;
#X obj 607 317 metro 50;
#X obj 611 288 tgl 15 0 empty empty empty 17 7 0 10 -262144 -1 -1 0
1;
#X floatatom 614 384 10 0 0 0 - - -;
#X obj 846 30 inlet;
#X text 896 30 inlet for loadbang;
#X msg 370 74 0.1;
#X msg 809 170 read -resize rain-forest-loop.aif table-1;
#X connect 0 0 2 0;
#X connect 1 0 0 0;
#X connect 2 0 3 0;
#X connect 3 0 6 0;
#X connect 3 0 9 1;
#X connect 3 0 17 0;
#X connect 4 0 5 0;
#X connect 5 0 8 0;
#X connect 6 0 5 1;
#X connect 8 0 9 0;
#X connect 9 0 10 0;
#X connect 9 0 20 0;
#X connect 10 0 11 0;
#X connect 11 0 15 0;
#X connect 12 0 13 0;
#X connect 12 0 11 1;
#X connect 14 0 5 0;
#X connect 17 0 19 0;
#X connect 19 0 16 0;
#X connect 20 0 23 0;
#X connect 21 0 20 0;
#X connect 22 0 21 0;
#X connect 23 0 18 0;
#X connect 24 0 4 0;
#X connect 24 0 22 0;
#X connect 24 0 27 0;
#X connect 24 0 26 0;
#X connect 26 0 12 0;
#X connect 27 0 3 0;
#X coords 0 -1 1 1 250 200 1 100 100;
#X restore 120 194 pd audioFile;
#X obj 110 155 loadbang;
#X obj 722 825 dac~ 27 28 29 30;
#X obj 1530 781 +~ 1;
#N canvas -157 40 1540 825 anemometer 0;
#X obj 523 298 loadbang;
#X msg 526 333 1;
#X obj 676 345 snapshot~;
#X obj 741 298 metro 50;
#X obj 743 271 tgl 15 0 empty empty empty 17 7 0 10 -262144 -1 -1 1
1;
#X floatatom 777 360 5 0 0 0 - - -;
#X obj 662 608 outlet;
#X obj 424 427 print WIND-RAW;
#X obj 1007 698 print WIND-CALIBRATED;
#X obj 676 368 * 100;
#X obj 672 179 inlet~;
#X obj 677 431 line~;
#X obj 748 523 snapshot~;
#X floatatom 849 538 5 0 0 0 - - -;
#X msg 677 403 \$1 1000;
#X connect 0 0 1 0;
#X connect 0 0 4 0;
#X connect 2 0 5 0;
#X connect 2 0 9 0;
#X connect 3 0 2 0;
#X connect 3 0 12 0;
#X connect 4 0 3 0;
#X connect 9 0 14 0;
#X connect 10 0 2 0;
#X connect 11 0 12 0;
#X connect 12 0 13 0;
#X connect 12 0 6 0;
#X connect 12 0 8 0;
#X connect 14 0 11 0;
#X restore 1144 58 pd anemometer;
#N canvas 731 367 450 300 photo-transistor 0;
#X obj 137 62 inlet~;
#X obj 139 115 snapshot~;
#X obj 222 27 loadbang;
#X obj 221 55 tgl 15 0 empty empty empty 17 7 0 10 -262144 -1 -1 1
1;
#X obj 222 79 metro 50;
#X obj 23 170 print PHOTO-TRANSISTOR-RAW;
#X obj 242 204 outlet;
#X obj 284 181 print PHOTO-TRANSISTOR;
#X obj 232 149 * 100;
#X connect 0 0 1 0;
#X connect 1 0 8 0;
#X connect 2 0 3 0;
#X connect 3 0 4 0;
#X connect 4 0 1 0;
#X connect 8 0 6 0;
#X restore 1273 77 pd photo-transistor;
#X obj 1267 -64 adc~ 3 4 5 6 7 8 9 10 11 12;
#N canvas 731 367 450 300 thermistor 0;
#X obj 137 62 inlet~;
#X obj 139 115 snapshot~;
#X obj 222 27 loadbang;
#X obj 221 55 tgl 15 0 empty empty empty 17 7 0 10 -262144 -1 -1 1
1;
#X obj 222 79 metro 50;
#X obj 242 204 outlet;
#X obj 284 181 print THERMISTOR;
#X obj 232 149 * 100;
#X connect 0 0 1 0;
#X connect 1 0 7 0;
#X connect 2 0 3 0;
#X connect 3 0 4 0;
#X connect 4 0 1 0;
#X connect 7 0 5 0;
#X restore 1276 -3 pd thermistor;
#N canvas 731 367 450 300 moisture 0;
#X obj 137 62 inlet~;
#X obj 139 115 snapshot~;
#X obj 222 27 loadbang;
#X obj 221 55 tgl 15 0 empty empty empty 17 7 0 10 -262144 -1 -1 1
1;
#X obj 222 79 metro 50;
#X obj 242 204 outlet;
#X obj 284 181 print MOISTURE;
#X connect 0 0 1 0;
#X connect 1 0 5 0;
#X connect 2 0 3 0;
#X connect 3 0 4 0;
#X connect 4 0 1 0;
#X restore 1184 35 pd moisture;
#X obj 1544 137 *~ 0.2;
#X obj 1548 246 *~ 0.2;
#X msg 598 -46 80;
#X obj 571 165 change;
#X text 634 -47 root midi note;
#X text 192 162 rain forest loop;
#X obj 571 92 hsl 128 15 0 127 0 0 empty empty empty -2 -8 0 10 -262144
-1 -1 0 1;
#X floatatom 573 122 5 0 0 0 - - -;
#X obj 572 141 > 60;
#X msg 769 -56 0.05;
#N canvas 0 25 1610 836 breath 0;
#X obj 510 138 hsl 128 15 0 1 0 0 empty empty empty -2 -8 0 10 -262144
-1 -1 3787 1;
#X obj 495 193 - 1;
#X obj 494 224 abs;
#X obj 832 423 snapshot~;
#X floatatom 846 461 5 0 0 0 - - -;
#X obj 833 387 metro 50;
#X obj 836 342 tgl 15 0 empty empty empty 17 7 0 10 -262144 -1 -1 1
1;
#X floatatom 509 118 5 0 0 0 - - -;
#X obj 921 245 phasor~;
#X obj 991 205 * -1;
#X obj 991 245 phasor~;
#X msg 1071 205 0;
#X obj 921 285 *~ 2;
#X obj 921 314 -~ 1;
#X obj 991 285 *~ 2;
#X obj 991 314 -~ 1;
#X obj 881 365 clip~ 0 1;
#X obj 981 365 clip~ 0 1;
#X obj 931 405 +~;
#X text 844 221 breath speed;
#X obj 1099 88 inlet;
#X obj 89 96 inlet;
#X obj 499 295 outlet;
#X obj 565 290 outlet;
#X connect 0 0 1 0;
#X connect 0 0 23 0;
#X connect 1 0 2 0;
#X connect 2 0 22 0;
#X connect 3 0 4 0;
#X connect 4 0 0 0;
#X connect 5 0 3 0;
#X connect 6 0 5 0;
#X connect 7 0 8 0;
#X connect 7 0 9 0;
#X connect 8 0 12 0;
#X connect 9 0 10 0;
#X connect 10 0 14 0;
#X connect 11 0 10 1;
#X connect 11 0 8 1;
#X connect 12 0 13 0;
#X connect 13 0 16 0;
#X connect 14 0 15 0;
#X connect 15 0 17 0;
#X connect 16 0 18 0;
#X connect 17 0 18 1;
#X connect 18 0 3 0;
#X connect 20 0 11 0;
#X connect 20 0 6 0;
#X connect 21 0 7 0;
#X coords 0 -1 1 1 150 60 1 500 100;
#X restore 769 -33 pd breath;
#X text 308 -41 switch to minor chord threshold;
#X obj 953 -96 s anemometer @hv_param;
#X obj 986 -71 s photo-transistor @hv_param;
#X obj 1024 -47 s moisture @hv_param;
#X obj 1055 -20 s thermistor @hv_param;
#N canvas 731 367 450 300 als 0;
#X obj 137 62 inlet~;
#X obj 139 115 snapshot~;
#X obj 222 27 loadbang;
#X obj 221 55 tgl 15 0 empty empty empty 17 7 0 10 -262144 -1 -1 1
1;
#X obj 222 79 metro 50;
#X obj 242 204 outlet;
#X obj 232 149 * 100;
#X obj 284 181 print ALS;
#X connect 0 0 1 0;
#X connect 1 0 6 0;
#X connect 2 0 3 0;
#X connect 3 0 4 0;
#X connect 4 0 1 0;
#X connect 6 0 5 0;
#X restore 1321 -34 pd als;
#X obj 1105 -95 s als @hv_param;
#X floatatom 219 519 10 0 0 0 - - -;
#X obj 159 510 tgl 15 0 empty empty empty 17 7 0 10 -262144 -1 -1 1
1;
#X obj 190 598 bng 15 250 50 0 empty empty empty 17 7 0 10 -262144
-1 -1;
#X obj 222 668 sel 1 2;
#X obj 190 629 random 3;
#X obj 210 698 bng 15 250 50 0 empty empty empty 17 7 0 10 -262144
-1 -1;
#X obj 241 699 bng 15 250 50 0 empty empty empty 17 7 0 10 -262144
-1 -1;
#X obj 271 699 bng 15 250 50 0 empty empty empty 17 7 0 10 -262144
-1 -1;
#X obj 98 727 s triggerBirds;
#X obj 192 742 s triggerCrickets;
#X obj 311 742 s triggerLoon;
#X obj 1496 471 vsl 15 128 0 1 0 0 empty empty empty 0 -9 0 10 -262144
-1 -1 1270 1;
#X floatatom 1496 604 5 0 0 0 - - -;
#X obj 1493 419 loadbang;
#X obj 771 526 *~;
#X obj 678 483 r in;
#X obj 799 525 *~;
#X obj 828 526 *~;
#X obj 856 527 *~;
#X obj 882 529 *~;
#X obj 908 530 *~;
#X obj 977 527 *~;
#X obj 1005 526 *~;
#X obj 1034 527 *~;
#X obj 1062 528 *~;
#X obj 1088 530 *~;
#X obj 1114 531 *~;
#X obj 1159 500 r out;
#X obj 1383 670 hradio 15 1 0 6 empty empty empty 0 -8 0 10 -262144
-1 -1 3;
#X floatatom 1391 699 5 0 0 0 - - -;
#X obj 1382 643 random 6;
#X obj 1178 553 bng 15 250 50 0 empty empty empty 17 7 0 10 -262144
-1 -1;
#X obj 1179 530 r triggerBirds;
#N canvas 392 25 1088 830 switchboard 0;
#X obj 71 37 inlet~;
#X obj 793 38 inlet, f 6;
#X obj 141 476 *~;
#X obj 315 480 *~;
#X obj 458 473 *~;
#X obj 620 469 *~;
#X obj 729 467 *~;
#X obj 827 465 *~;
#X obj 147 617 outlet~;
#X obj 313 628 outlet~;
#X obj 447 629 outlet~;
#X obj 614 626 outlet~;
#X obj 844 630 outlet~;
#X obj 726 625 outlet~;
#X obj 597 89 == 0;
#X msg 591 110 \$1 20;
#X obj 592 128 line~;
#X msg 648 109 \$1 20;
#X obj 649 127 line~;
#X msg 703 105 \$1 20;
#X obj 704 123 line~;
#X msg 758 107 \$1 20;
#X obj 759 125 line~;
#X msg 813 107 \$1 20;
#X obj 816 126 line~;
#X msg 874 107 \$1 20;
#X obj 875 125 line~;
#X obj 654 88 == 1;
#X obj 709 84 == 2;
#X obj 764 86 == 3;
#X obj 819 86 == 4;
#X obj 880 86 == 5;
#X connect 0 0 2 0;
#X connect 0 0 3 0;
#X connect 0 0 4 0;
#X connect 0 0 5 0;
#X connect 0 0 6 0;
#X connect 0 0 7 0;
#X connect 1 0 14 0;
#X connect 1 0 27 0;
#X connect 1 0 28 0;
#X connect 1 0 29 0;
#X connect 1 0 30 0;
#X connect 1 0 31 0;
#X connect 2 0 8 0;
#X connect 3 0 9 0;
#X connect 4 0 10 0;
#X connect 5 0 11 0;
#X connect 6 0 13 0;
#X connect 7 0 12 0;
#X connect 14 0 15 0;
#X connect 15 0 16 0;
#X connect 16 0 2 1;
#X connect 17 0 18 0;
#X connect 18 0 3 1;
#X connect 19 0 20 0;
#X connect 20 0 4 1;
#X connect 21 0 22 0;
#X connect 22 0 5 1;
#X connect 23 0 24 0;
#X connect 24 0 6 1;
#X connect 25 0 26 0;
#X connect 26 0 7 1;
#X connect 27 0 17 0;
#X connect 28 0 19 0;
#X connect 29 0 21 0;
#X connect 30 0 23 0;
#X connect 31 0 25 0;
#X restore 1216 712 pd switchboard;
#N canvas 973 149 707 664 birds 0;
#X obj 148 218 readsf~;
#X msg 178 188 1;
#X obj 246 119 bng 15 250 50 0 empty empty empty 17 7 0 10 -262144
-1 -1;
#X obj 149 70 inlet;
#X obj 143 258 outlet~;
#X msg 134 162 open bird-chirps.aif;
#X connect 0 0 4 0;
#X connect 1 0 0 0;
#X connect 2 0 5 0;
#X connect 2 0 1 0;
#X connect 3 0 2 0;
#X connect 5 0 0 0;
#X restore 1179 574 pd birds;
#X obj 1273 550 bng 15 250 50 0 empty empty empty 17 7 0 10 -262144
-1 -1;
#X obj 1275 530 r triggerCrickets;
#N canvas 973 149 707 664 crickets 0;
#X obj 148 218 readsf~;
#X msg 178 188 1;
#X obj 144 93 bng 15 250 50 0 empty empty empty 17 7 0 10 -262144 -1
-1;
#X obj 149 70 inlet;
#X obj 143 258 outlet~;
#X msg 134 162 open crickets.aif;
#X connect 0 0 4 0;
#X connect 1 0 0 0;
#X connect 2 0 5 0;
#X connect 2 0 1 0;
#X connect 3 0 2 0;
#X connect 5 0 0 0;
#X restore 1272 573 pd crickets;
#X obj 1390 554 bng 15 250 50 0 empty empty empty 17 7 0 10 -262144
-1 -1;
#X obj 1392 530 r triggerLoon;
#N canvas 973 149 707 664 loon 0;
#X obj 148 218 readsf~;
#X msg 178 188 1;
#X obj 144 93 bng 15 250 50 0 empty empty empty 17 7 0 10 -262144 -1
-1;
#X obj 149 70 inlet;
#X obj 143 258 outlet~;
#X msg 134 162 open loon-call.aif;
#X connect 0 0 4 0;
#X connect 1 0 0 0;
#X connect 2 0 5 0;
#X connect 2 0 1 0;
#X connect 3 0 2 0;
#X connect 5 0 0 0;
#X restore 1388 576 pd loon;
#X obj 1559 469 vsl 15 128 0 1 0 0 empty empty empty 0 -9 0 10 -262144
-1 -1 0 1;
#X floatatom 1559 602 5 0 0 0 - - -;
#X obj 1535 806 *~ 0.2;
#X obj 1609 468 vsl 15 128 0 1 0 0 empty empty empty 0 -9 0 10 -262144
-1 -1 6350 1;
#X floatatom 1609 601 5 0 0 0 - - -;
#X msg 1607 442 0.5;
#X obj 1151 800 *~ 0.5;
#X obj 1201 800 *~ 0.5;
#X obj 1249 800 *~ 0.5;
#X obj 1296 800 *~ 0.5;
#X obj 1347 801 *~ 0.5;
#X obj 1398 802 *~ 0.5;
#X obj 119 401 s~ rainForest;
#X obj 1532 750 r~ rainForest;
#X floatatom 279 651 5 0 0 0 - - -;
#X obj 155 482 loadbang;
#X msg 1494 445 0.1;
#X obj 1030 929 dac~ 1 2 3 4 5 6;
#X obj 812 647 *~ 0.2;
#X obj 862 647 *~ 0.2;
#X obj 910 647 *~ 0.2;
#X obj 957 647 *~ 0.2;
#X obj 1008 648 *~ 0.2;
#X obj 1060 649 *~ 0.2;
#X msg 1557 443 0;
#X obj 415 620 print RANDOM;
#X obj 364 560 + 60000;
#X obj 265 583 random 120000;
#X obj 188 548 metro 180000;
#X obj 575 189 bng 15 250 50 0 empty empty empty 17 7 0 10 -262144
-1 -1;
#X text 582 -46 Ab;
#N canvas 637 292 542 334 AbMaj_Low 0;
#X floatatom 86 132 5 0 0 0 - - -;
#X floatatom 156 133 5 0 0 0 - - -;
#X floatatom 220 132 5 0 0 0 - - -;
#X floatatom 286 132 5 0 0 0 - - -;
#X obj 85 72 * 1;
#X obj 88 177 osc~;
#X obj 152 181 osc~;
#X obj 220 176 osc~;
#X obj 284 179 osc~;
#X obj 155 72 * 1.5;
#X floatatom 343 132 5 0 0 0 - - -;
#X obj 341 179 osc~;
#X floatatom 396 131 5 0 0 0 - - -;
#X obj 394 178 osc~;
#X obj 219 72 * 2.25;
#X obj 295 72 * 3;
#X obj 352 72 * 3.75;
#X obj 405 71 * 5;
#X obj 394 211 *~ 0.5;
#X obj 59 225 outlet~;
#X obj 132 224 outlet~;
#X obj 201 224 outlet~;
#X obj 266 224 outlet~;
#X obj 325 249 outlet~;
#X obj 388 250 outlet~;
#X obj 205 12 inlet;
#X connect 0 0 5 0;
#X connect 1 0 6 0;
#X connect 2 0 7 0;
#X connect 3 0 8 0;
#X connect 4 0 0 0;
#X connect 5 0 19 0;
#X connect 6 0 20 0;
#X connect 7 0 21 0;
#X connect 8 0 22 0;
#X connect 9 0 1 0;
#X connect 10 0 11 0;
#X connect 11 0 23 0;
#X connect 12 0 13 0;
#X connect 13 0 18 0;
#X connect 14 0 2 0;
#X connect 15 0 3 0;
#X connect 16 0 10 0;
#X connect 17 0 12 0;
#X connect 18 0 24 0;
#X connect 25 0 4 0;
#X connect 25 0 9 0;
#X connect 25 0 14 0;
#X connect 25 0 15 0;
#X connect 25 0 16 0;
#X connect 25 0 17 0;
#X restore 808 489 pd AbMaj_Low;
#N canvas 566 350 607 357 AbMaj_High 0;
#X floatatom 98 142 5 0 0 0 - - -;
#X floatatom 166 142 5 0 0 0 - - -;
#X floatatom 238 142 5 0 0 0 - - -;
#X floatatom 298 142 5 0 0 0 - - -;
#X obj 91 188 osc~;
#X obj 155 192 osc~;
#X obj 229 187 osc~;
#X obj 296 186 osc~;
#X obj 298 113 * 3.75;
#X obj 266 220 *~ 0.5;
#X floatatom 368 145 5 0 0 0 - - -;
#X obj 366 189 osc~;
#X obj 368 116 * 4.5;
#X floatatom 436 148 5 0 0 0 - - -;
#X obj 434 192 osc~;
#X obj 436 119 * 5;
#X obj 404 226 *~ 0.3;
#X obj 336 223 *~ 0.4;
#X obj 279 18 inlet;
#X obj 53 221 outlet~;
#X obj 129 232 outlet~;
#X obj 196 229 outlet~;
#X obj 255 259 outlet~;
#X obj 327 261 outlet~;
#X obj 396 260 outlet~;
#X obj 95 78 * 2;
#X obj 163 78 * 2.5;
#X obj 237 106 * 3;
#X connect 0 0 4 0;
#X connect 1 0 5 0;
#X connect 2 0 6 0;
#X connect 3 0 7 0;
#X connect 4 0 19 0;
#X connect 5 0 20 0;
#X connect 6 0 21 0;
#X connect 7 0 9 0;
#X connect 8 0 3 0;
#X connect 9 0 22 0;
#X connect 10 0 11 0;
#X connect 11 0 17 0;
#X connect 12 0 10 0;
#X connect 13 0 14 0;
#X connect 14 0 16 0;
#X connect 15 0 13 0;
#X connect 16 0 24 0;
#X connect 17 0 23 0;
#X connect 18 0 8 0;
#X connect 18 0 12 0;
#X connect 18 0 15 0;
#X connect 18 0 25 0;
#X connect 18 0 26 0;
#X connect 18 0 27 0;
#X connect 25 0 0 0;
#X connect 26 0 1 0;
#X connect 27 0 2 0;
#X restore 995 493 pd AbMaj_High;
#X obj 953 353 dac~ 9 10;
#X obj 690 323 snapshot~;
#X obj 769 268 metro 50;
#X obj 705 208 loadbang;
#X obj 740 243 tgl 15 0 empty empty empty 17 7 0 10 -262144 -1 -1 1
1;
#X obj 915 217 *~ 2;
#X obj 915 239 -~ 1;
#X obj 914 269 clip~ 0 1;
#X obj 997 216 *~ 2;
#X obj 997 238 -~ 1;
#X obj 996 268 clip~ 0 1;
#X obj 915 192 phasor~;
#X obj 998 191 phasor~;
#X msg 920 153 0.1;
#X obj 998 159 * -1;
#X msg 1071 165 0;
#X obj 961 308 +~;
#X obj 963 117 loadbang;
#X msg 629 280 1;
#X obj 556 337 sig~;
#N canvas 0 25 1082 732 pumpControl 0;
#X obj 154 48 tgl 17 0 empty empty empty 17 7 0 10 -262144 -1 -1 0
1;
#X obj 154 130 bng 17 250 50 0 empty empty empty 17 7 0 10 -262144
-1 -1;
#X obj 193 126 sel 1;
#X floatatom 193 181 5 0 0 0 - - -;
#X obj 154 70 t f f;
#X obj 154 96 metro 1 90 permin;
#X obj 193 156 timer 90 permin;
#X obj 388 271 bng 15 250 50 0 empty empty empty 17 7 0 10 -262144
-1 -1;
#X floatatom 141 246 5 0 0 0 - - -;
#X obj 194 213 sig~;
#X obj 208 242 threshold~;
#X connect 0 0 4 0;
#X connect 1 0 6 1;
#X connect 2 0 6 0;
#X connect 3 0 9 0;
#X connect 4 0 5 0;
#X connect 4 1 2 0;
#X connect 5 0 1 0;
#X connect 6 0 3 0;
#X connect 7 0 6 0;
#X connect 9 0 10 0;
#X connect 10 0 7 0;
#X restore 473 449 pd pumpControl;
#X obj 487 249 hsl 128 15 0 1 0 0 empty empty empty -2 -8 0 10 -262144
-1 -1 0 1;
#X floatatom 483 282 5 0 0 0 - - -;
#X msg 451 218 0.7;
#X obj 440 195 loadbang;
#N canvas 0 50 450 300 water-level 0;
#X obj 137 62 inlet~;
#X obj 139 115 snapshot~;
#X obj 222 27 loadbang;
#X obj 221 55 tgl 15 0 empty empty empty 17 7 0 10 -262144 -1 -1 1
1;
#X obj 222 79 metro 50;
#X obj 242 204 outlet;
#X obj 232 149 * 100;
#X obj 284 181 print WATER_LEVEL;
#X connect 0 0 1 0;
#X connect 1 0 6 0;
#X connect 2 0 3 0;
#X connect 3 0 4 0;
#X connect 4 0 1 0;
#X connect 6 0 5 0;
#X restore 1225 15 pd water-level;
#X connect 0 0 120 0;
#X connect 1 0 121 0;
#X connect 2 0 3 0;
#X connect 7 0 32 0;
#X connect 7 0 39 0;
#X connect 7 0 40 1;
#X connect 8 0 9 0;
#X connect 11 0 30 0;
#X connect 11 1 30 0;
#X connect 11 2 30 0;
#X connect 11 3 30 0;
#X connect 11 4 30 0;
#X connect 11 5 30 0;
#X connect 12 0 31 0;
#X connect 12 1 31 0;
#X connect 12 2 31 0;
#X connect 12 3 31 0;
#X connect 12 4 31 0;
#X connect 12 5 31 0;
#X connect 13 0 14 0;
#X connect 13 0 16 0;
#X connect 14 0 15 0;
#X connect 15 0 17 0;
#X connect 18 0 20 0;
#X connect 19 0 13 0;
#X connect 20 0 19 0;
#X connect 21 0 101 0;
#X connect 24 0 91 0;
#X connect 25 0 42 0;
#X connect 26 0 43 0;
#X connect 27 0 25 0;
#X connect 27 1 29 0;
#X connect 27 2 147 0;
#X connect 27 3 28 0;
#X connect 27 4 46 0;
#X connect 27 4 26 0;
#X connect 28 0 45 0;
#X connect 29 0 44 0;
#X connect 32 0 2 0;
#X connect 33 0 118 0;
#X connect 36 0 37 0;
#X connect 37 0 38 0;
#X connect 38 0 33 0;
#X connect 39 0 40 0;
#X connect 40 0 4 0;
#X connect 40 1 5 0;
#X connect 46 0 47 0;
#X connect 48 0 117 1;
#X connect 49 0 117 0;
#X connect 50 0 52 0;
#X connect 51 0 53 0;
#X connect 51 1 54 0;
#X connect 51 2 55 0;
#X connect 52 0 51 0;
#X connect 52 0 103 0;
#X connect 53 0 56 0;
#X connect 54 0 57 0;
#X connect 55 0 58 0;
#X connect 59 0 60 0;
#X connect 60 0 107 1;
#X connect 60 0 108 1;
#X connect 60 0 109 1;
#X connect 60 0 110 1;
#X connect 60 0 111 1;
#X connect 60 0 112 1;
#X connect 61 0 105 0;
#X connect 61 0 113 0;
#X connect 61 0 94 0;
#X connect 62 0 107 0;
#X connect 63 0 62 1;
#X connect 63 0 64 1;
#X connect 63 0 65 1;
#X connect 63 0 66 1;
#X connect 63 0 67 1;
#X connect 63 0 68 1;
#X connect 64 0 108 0;
#X connect 65 0 109 0;
#X connect 66 0 110 0;
#X connect 67 0 111 0;
#X connect 68 0 112 0;
#X connect 69 0 112 0;
#X connect 70 0 107 0;
#X connect 71 0 108 0;
#X connect 72 0 109 0;
#X connect 73 0 110 0;
#X connect 74 0 111 0;
#X connect 75 0 69 1;
#X connect 75 0 70 1;
#X connect 75 0 71 1;
#X connect 75 0 72 1;
#X connect 75 0 73 1;
#X connect 75 0 74 1;
#X connect 76 0 77 0;
#X connect 77 0 81 1;
#X connect 78 0 76 0;
#X connect 79 0 78 0;
#X connect 79 0 82 0;
#X connect 80 0 79 0;
#X connect 81 0 95 0;
#X connect 81 1 96 0;
#X connect 81 2 97 0;
#X connect 81 3 98 0;
#X connect 81 4 99 0;
#X connect 81 5 100 0;
#X connect 82 0 81 0;
#X connect 83 0 78 0;
#X connect 83 0 85 0;
#X connect 84 0 83 0;
#X connect 85 0 81 0;
#X connect 86 0 88 0;
#X connect 86 0 78 0;
#X connect 87 0 86 0;
#X connect 88 0 81 0;
#X connect 89 0 90 0;
#X connect 90 0 91 1;
#X connect 92 0 93 0;
#X connect 93 0 95 1;
#X connect 93 0 96 1;
#X connect 93 0 97 1;
#X connect 93 0 98 1;
#X connect 93 0 99 1;
#X connect 93 0 100 1;
#X connect 94 0 92 0;
#X connect 95 0 106 0;
#X connect 95 0 23 3;
#X connect 96 0 106 1;
#X connect 96 0 23 3;
#X connect 97 0 106 2;
#X connect 97 0 23 3;
#X connect 98 0 106 3;
#X connect 98 0 23 3;
#X connect 99 0 106 4;
#X connect 99 0 23 3;
#X connect 100 0 106 5;
#X connect 100 0 23 3;
#X connect 102 0 24 0;
#X connect 104 0 49 0;
#X connect 105 0 59 0;
#X connect 107 0 23 0;
#X connect 107 0 106 0;
#X connect 108 0 23 1;
#X connect 108 0 106 1;
#X connect 109 0 23 2;
#X connect 109 0 106 2;
#X connect 110 0 106 3;
#X connect 111 0 106 4;
#X connect 112 0 106 5;
#X connect 113 0 89 0;
#X connect 115 0 48 0;
#X connect 115 0 114 0;
#X connect 116 0 115 0;
#X connect 117 0 50 0;
#X connect 117 0 116 0;
#X connect 120 0 62 0;
#X connect 120 1 64 0;
#X connect 120 2 65 0;
#X connect 120 3 66 0;
#X connect 120 4 67 0;
#X connect 120 5 68 0;
#X connect 121 0 69 0;
#X connect 121 1 70 0;
#X connect 121 2 71 0;
#X connect 121 3 72 0;
#X connect 121 4 73 0;
#X connect 121 5 74 0;
#X connect 124 0 123 0;
#X connect 125 0 126 0;
#X connect 125 0 140 0;
#X connect 126 0 124 0;
#X connect 127 0 128 0;
#X connect 128 0 129 0;
#X connect 129 0 138 0;
#X connect 130 0 131 0;
#X connect 131 0 132 0;
#X connect 132 0 138 1;
#X connect 133 0 127 0;
#X connect 134 0 130 0;
#X connect 135 0 136 0;
#X connect 135 0 133 0;
#X connect 136 0 134 0;
#X connect 137 0 134 1;
#X connect 137 0 133 1;
#X connect 138 0 122 0;
#X connect 138 0 122 1;
#X connect 139 0 135 0;
#X connect 139 0 137 0;
#X connect 141 0 123 0;
#X connect 143 0 144 0;
#X connect 144 0 141 0;
#X connect 146 0 145 0;
