#N canvas 755 0 768 768 10;
#X msg 103 27 connect 192.168.0.102 8888 6000;
#X floatatom 106 303 5 0 0 0 - - -;
#X obj 197 305 print backward;
#X floatatom 129 125 5 0 0 0 - - -;
#X floatatom 194 126 5 0 0 0 - - -;
#X floatatom 274 126 5 0 0 0 - - -;
#X obj 199 55 bng 15 250 50 0 empty empty empty 17 7 0 10 -262144 -1
-1;
#X obj 498 192 *~ 255;
#X obj 499 222 snapshot~;
#X floatatom 499 275 5 0 0 0 - - -;
#X obj 499 248 int;
#X obj 391 125 bng 15 250 50 0 empty empty empty 17 7 0 10 -262144
-1 -1;
#X obj 395 154 metro;
#X floatatom 426 126 5 0 0 0 - - -;
#X obj 500 321 spigot;
#X obj 544 299 tgl 15 0 empty empty empty 17 7 0 10 -262144 -1 -1 1
1;
#X obj 216 261 print;
#X obj 106 254 netsend -u;
#X obj 492 138 clip~ 0 1;
#X obj 492 80 *~ 0.5;
#X obj 492 109 +~ 0.5;
#X obj 338 6 loadbang;
#X obj 313 344 -;
#X floatatom 311 287 5 0 0 0 - - -;
#X msg 311 266 255;
#X text 126 105 Hue;
#X text 179 105 Saturation;
#X text 271 101 Value;
#X obj 582 189 *~ 255;
#X obj 583 219 snapshot~;
#X floatatom 583 272 5 0 0 0 - - -;
#X obj 583 245 int;
#X obj 584 318 spigot;
#X obj 628 296 tgl 15 0 empty empty empty 17 7 0 10 -262144 -1 -1 1
1;
#X obj 576 135 clip~ 0 1;
#X msg 576 19 0.1;
#X obj 576 48 osc~;
#X obj 492 51 osc~;
#X obj 576 77 *~ 0.25;
#X obj 576 106 +~ 0.75;
#X msg 492 22 0.003;
#X msg 426 101 50;
#X obj 159 176 pack f f f;
#X msg 130 217 send \$1 \$2 \$3;
#X msg 126 83 250;
#X obj 35 6 metro 2000;
#X connect 0 0 17 0;
#X connect 3 0 42 0;
#X connect 4 0 42 1;
#X connect 5 0 42 2;
#X connect 6 0 3 0;
#X connect 6 0 4 0;
#X connect 6 0 5 0;
#X connect 6 0 44 0;
#X connect 7 0 8 0;
#X connect 8 0 10 0;
#X connect 9 0 14 0;
#X connect 10 0 9 0;
#X connect 11 0 12 0;
#X connect 12 0 8 0;
#X connect 12 0 24 0;
#X connect 12 0 29 0;
#X connect 12 0 6 0;
#X connect 13 0 12 1;
#X connect 14 0 22 1;
#X connect 14 0 3 0;
#X connect 15 0 14 1;
#X connect 17 0 1 0;
#X connect 17 1 2 0;
#X connect 18 0 7 0;
#X connect 19 0 20 0;
#X connect 20 0 18 0;
#X connect 21 0 11 0;
#X connect 21 0 41 0;
#X connect 21 0 0 0;
#X connect 21 0 40 0;
#X connect 21 0 15 0;
#X connect 21 0 33 0;
#X connect 21 0 35 0;
#X connect 21 0 6 0;
#X connect 23 0 22 0;
#X connect 24 0 23 0;
#X connect 28 0 29 0;
#X connect 29 0 31 0;
#X connect 30 0 32 0;
#X connect 31 0 30 0;
#X connect 32 0 5 0;
#X connect 33 0 32 1;
#X connect 34 0 28 0;
#X connect 35 0 36 0;
#X connect 36 0 38 0;
#X connect 37 0 19 0;
#X connect 38 0 39 0;
#X connect 39 0 34 0;
#X connect 40 0 37 0;
#X connect 41 0 13 0;
#X connect 42 0 43 0;
#X connect 43 0 17 0;
#X connect 44 0 3 0;
#X connect 44 0 4 0;
#X connect 45 0 0 0;
